<svg version="1.1" xmlns="http://www.w3.org/2000/svg" viewBox="0 0 172 172">
    <g fill="none" fill-rule="nonzero" stroke="none" stroke-width="1" stroke-linecap="butt" stroke-linejoin="miter"
       stroke-miterlimit="10" stroke-dasharray="" stroke-dashoffset="0" font-family="none" font-weight="none"
       font-size="none" text-anchor="none" style="mix-blend-mode: normal">
        <path d="M0,172v-172h172v172z" fill="none"></path>
        <g>
            <path d="M130.075,35.83333h-88.15c-1.43333,0 -2.50833,-1.075 -2.50833,-2.50833v-9.31667c0,-1.43333 1.075,-2.50833 2.50833,-2.50833h87.79167c1.79167,0 2.86667,1.075 2.86667,2.50833v8.95833c0,1.79167 -1.075,2.86667 -2.50833,2.86667z"
                  fill="#bbdefb"></path>
            <path d="M121.83333,157.66667h-71.66667c-7.88333,0 -14.33333,-6.45 -14.33333,-14.33333v-80.625c0,-3.58333 0.71667,-7.16667 1.79167,-10.75l5.01667,-16.125h86.35833l5.73333,16.48333c1.075,3.225 1.43333,6.80833 1.43333,10.39167v80.625c0,7.88333 -6.45,14.33333 -14.33333,14.33333z"
                  fill="#e3f2fd"></path>
            <path d="M55.54167,78.83333c-2.96853,0 -5.375,2.40647 -5.375,5.375c0,2.96853 2.40647,5.375 5.375,5.375c2.96853,0 5.375,-2.40647 5.375,-5.375c0,-2.96853 -2.40647,-5.375 -5.375,-5.375zM80.625,68.08333c-4.94755,0 -8.95833,4.01078 -8.95833,8.95833c0,4.94755 4.01078,8.95833 8.95833,8.95833c4.94755,0 8.95833,-4.01078 8.95833,-8.95833c0,-4.94755 -4.01078,-8.95833 -8.95833,-8.95833zM132.58333,129c0,0 -7.16667,3.58333 -17.91667,3.58333c-15.76667,0 -18.275,-3.58333 -26.15833,-3.58333c-10.03333,0 -12.54167,7.16667 -17.91667,7.16667c-5.375,0 -7.525,-5.01667 -10.03333,-8.6c-5.73333,-8.6 -10.75,-12.9 -21.5,-12.9h-3.58333v35.83333h100.33333v-25.08333z"
                  fill="#f2711c"></path>
            <path d="M53.75,143.33333c-3.58333,-7.16667 -6.45,-10.75 -14.33333,-10.75h-3.58333v8.95833c0,0 0,0.71667 0,1.075c0.71667,8.24167 7.525,15.05 16.125,15.05h68.08333c8.95833,0 16.125,-7.16667 16.125,-16.125v-5.375h-3.58333c0,0 -7.16667,7.16667 -50.16667,7.16667c-10.75,0 -17.55833,3.58333 -21.5,3.58333c-3.58333,0 -6.09167,-1.075 -7.16667,-3.58333z"
                  fill="#d65500"></path>
            <path d="M73.45833,103.91667c-2.96853,0 -5.375,2.40647 -5.375,5.375c0,2.96853 2.40647,5.375 5.375,5.375c2.96853,0 5.375,-2.40647 5.375,-5.375c0,-2.96853 -2.40647,-5.375 -5.375,-5.375z"
                  fill="#f2711c"></path>
            <path d="M121.83333,161.25h-71.66667c-10.03333,0 -17.91667,-7.88333 -17.91667,-17.91667v-80.625c0,-3.94167 0.71667,-7.88333 1.79167,-11.825l5.73333,-18.63333h91.73333l6.45,18.99167c1.075,3.94167 1.79167,7.525 1.79167,11.46667v80.625c0,10.03333 -7.88333,17.91667 -17.91667,17.91667zM45.15,39.41667l-4.3,13.61667c-1.075,3.225 -1.43333,6.45 -1.43333,9.675v80.625c0,6.09167 4.65833,10.75 10.75,10.75h71.66667c6.09167,0 10.75,-4.65833 10.75,-10.75v-80.625c0,-3.225 -0.35833,-6.09167 -1.43333,-9.31667l-4.65833,-13.975z"
                  fill="#90caf9"></path>
            <path d="M130.075,39.41667h-88.15c-3.58333,0 -6.09167,-2.86667 -6.09167,-6.09167v-9.31667c0,-3.58333 2.86667,-6.09167 6.09167,-6.09167h87.79167c3.58333,0 6.09167,2.86667 6.09167,6.09167v8.95833c0.35833,3.58333 -2.50833,6.45 -5.73333,6.45zM43,32.25h86v-7.16667h-86z"
                  fill="#90caf9"></path>
            <path d="M103.91667,57.33333c0,3.94167 3.225,7.16667 7.16667,7.16667c3.94167,0 7.16667,-3.225 7.16667,-7.16667c0,-1.43333 -0.35833,-2.86667 -1.43333,-3.94167c-1.79167,-2.50833 -2.15,-5.375 -2.15,-8.24167v-8.6c0,-2.50833 1.43333,-5.01667 3.225,-6.80833c2.50833,-2.15 3.94167,-5.01667 3.94167,-8.24167c0,-6.09167 -4.65833,-10.75 -10.75,-10.75v0c0,0 -17.2,0 -17.91667,0c-2.15,0 -3.58333,1.43333 -3.58333,3.58333c0,2.15 1.43333,3.58333 3.58333,3.58333c1.43333,0 3.58333,0 3.58333,0c3.58333,0 3.58333,6.45 3.58333,7.16667c0,3.94167 2.50833,5.73333 5.01667,7.16667c1.79167,1.075 2.15,2.86667 2.15,4.65833v5.73333c0,3.94167 -0.71667,7.88333 -2.50833,11.10833c-0.71667,1.075 -1.075,2.15 -1.075,3.58333z"
                  fill="#f2711c"></path>
        </g>
    </g>
</svg>