<svg version="1.1" xmlns="http://www.w3.org/2000/svg" viewBox="0 0 172 172">
    <g fill="none" fill-rule="nonzero" stroke="none" stroke-width="1" stroke-linecap="butt" stroke-linejoin="miter"
       stroke-miterlimit="10" stroke-dasharray="" stroke-dashoffset="0" font-family="none" font-weight="none"
       font-size="none" text-anchor="none" style="mix-blend-mode: normal">
        <path d="M0,172v-172h172v172z" fill="none"></path>
        <g id="original-icon" fill="#d5d8dc">
            <path d="M18.05664,5.375c-4.01025,0 -7.35913,2.87647 -7.97852,6.84473l-4.70312,30.6123c-3.38037,21.90942 7.65308,43.33594 27.4314,53.33008l13.76294,6.96021c0.94483,0.47241 1.52222,1.48022 1.46973,2.54053l-1.92114,35.4834c-0.18896,3.55884 -2.64551,6.52979 -6.10986,7.39063l-15.0647,3.71631c-3.61133,0.89233 -6.13086,4.11523 -6.13086,7.83154v1.16528c0,2.96045 2.41455,5.375 5.375,5.375h64.5c2.96045,0 5.375,-2.41455 5.375,-5.375v-1.16528c0,-3.71631 -2.51953,-6.93921 -6.13086,-7.83154l-15.0647,-3.71631c-3.46435,-0.86084 -5.9209,-3.83179 -6.10986,-7.40112l-1.92114,-35.4834c-0.05249,-1.0603 0.5249,-2.05762 1.46973,-2.54053l13.76294,-6.94971c19.77832,-9.99414 30.81177,-31.42065 27.4314,-53.33008l-4.70312,-30.6123c-0.61939,-3.96826 -3.96826,-6.84473 -7.97852,-6.84473zM133.66113,5.375c-3.98926,0 -7.41162,2.97095 -7.97852,6.90772l-6.56128,45.50903c-0.66138,4.55615 1.02881,9.08081 4.50366,12.08325l10.67651,9.22778l-4.47217,73.94824c-0.26245,4.26221 1.20728,8.32495 4.13623,11.43237c2.92896,3.11792 6.88672,4.8291 11.15942,4.8291c4.27271,0 8.24097,-1.71118 11.16992,-4.8291c2.92896,-3.10742 4.39868,-7.17017 4.13623,-11.43237l-4.48267,-73.93774l10.54004,-8.88135c3.55884,-3.00244 5.30151,-7.55859 4.64014,-12.17773l-6.56128,-45.76099c-0.56689,-3.94727 -3.98926,-6.91821 -7.97852,-6.91821zM18.05664,10.75h76.76172c1.34375,0 2.45654,0.95532 2.65601,2.28858l4.72412,30.6018c3.01294,19.61035 -6.85522,38.79028 -24.55493,47.73462l-13.76294,6.93921c-2.84497,1.44873 -4.57715,4.44067 -4.40918,7.63208l1.92114,35.4834c0.31494,5.9419 4.41968,10.89697 10.1936,12.32471l15.0542,3.71631c1.20728,0.30444 2.04712,1.37524 2.04712,2.61401v1.16528h-64.5v-1.16528c0,-1.23877 0.83984,-2.32007 2.03662,-2.61401l15.0647,-3.71631c5.78442,-1.42773 9.87866,-6.38281 10.1936,-12.32471l1.92114,-35.4834c0.16797,-3.19141 -1.55371,-6.18335 -4.40918,-7.63208l-13.76294,-6.94971c-17.69971,-8.93384 -27.56787,-28.11377 -24.54443,-47.72412l0.92383,-6.01538h58.26416c1.49072,0 2.6875,-1.19678 2.6875,-2.6875c0,-1.49072 -1.19678,-2.6875 -2.6875,-2.6875h-57.44531l2.96045,-19.21142c0.20996,-1.33325 1.32275,-2.28858 2.6665,-2.28858zM133.66113,10.75h3.40137l-2.6875,42.83203c-0.08398,1.48022 1.03931,2.76099 2.51953,2.85547c0.05249,0 0.11548,0 0.16797,0c1.40674,0 2.59302,-1.0918 2.6875,-2.51953l2.6875,-43c0,-0.05249 -0.03149,-0.10498 -0.03149,-0.16797h5.43799c0,0.06299 -0.03149,0.11548 -0.03149,0.16797l2.6875,43c0.09448,1.42773 1.28076,2.51953 2.6875,2.51953c0.05249,0 0.11548,0 0.16797,0c1.48022,-0.09448 2.60352,-1.37524 2.51953,-2.85547l-2.6875,-42.83203h3.40137c1.33325,0 2.47754,0.98682 2.65601,2.30957l6.56128,45.76099c0.39892,2.77148 -0.64038,5.50098 -2.78198,7.30664l-11.56885,9.75268c-0.05249,0.05249 -0.07349,0.11548 -0.11548,0.15747c-0.13647,0.12598 -0.24146,0.27295 -0.34643,0.43042c-0.09448,0.13647 -0.18897,0.27295 -0.25195,0.41992c-0.06299,0.15747 -0.09448,0.31494 -0.13647,0.47241c-0.04199,0.18897 -0.07349,0.36743 -0.07349,0.5459c0,0.07349 -0.03149,0.12598 -0.03149,0.19946l0.48291,7.89453h-11.71582l0.48291,-7.89453c0,-0.06299 -0.03149,-0.11548 -0.03149,-0.16797c0,-0.19946 -0.03149,-0.37793 -0.07348,-0.56689c-0.03149,-0.15747 -0.06299,-0.31494 -0.12598,-0.45142c-0.06299,-0.16797 -0.16797,-0.30444 -0.26245,-0.45142c-0.10498,-0.14697 -0.19946,-0.28345 -0.32544,-0.41992c-0.04199,-0.04199 -0.06299,-0.10498 -0.10498,-0.13647l-11.68433,-10.09912c-2.08911,-1.80566 -3.09692,-4.51416 -2.7085,-7.24365l6.56128,-45.50903c0.18896,-1.32275 1.33325,-2.30957 2.6665,-2.30957zM80.625,32.25c-1.49072,0 -2.6875,1.19678 -2.6875,2.6875c0,1.49072 1.19678,2.6875 2.6875,2.6875h10.75c1.49072,0 2.6875,-1.19678 2.6875,-2.6875c0,-1.49072 -1.19678,-2.6875 -2.6875,-2.6875zM25.65723,49.37232c-0.34643,0.03149 -0.69287,0.13647 -1.01831,0.31494l-5.12305,2.88696c-1.29126,0.72436 -1.75317,2.37256 -1.02881,3.66382c0.49341,0.87134 1.40674,1.37524 2.34107,1.37524c0.45142,0 0.90283,-0.11548 1.32276,-0.34643l5.12305,-2.88696c1.29126,-0.72436 1.75317,-2.36206 1.02881,-3.65332c-0.5564,-0.97632 -1.6062,-1.48022 -2.64551,-1.35425zM31.79858,60.97266c-0.68237,-0.03149 -1.38574,0.18897 -1.93164,0.68237l-4.53516,4.08374c-1.10229,0.98682 -1.19678,2.6875 -0.19946,3.78979c0.5249,0.58789 1.25977,0.89233 1.99463,0.89233c0.64038,0 1.28076,-0.22046 1.79517,-0.68237l4.53516,-4.07324c1.10229,-0.99732 1.19678,-2.698 0.20996,-3.80029c-0.50391,-0.5564 -1.17578,-0.85034 -1.86865,-0.89233zM39.97656,69.91699c-0.68237,0.10498 -1.32275,0.47241 -1.76367,1.0708l-3.64282,4.98657c-0.87134,1.19678 -0.60889,2.87647 0.58789,3.7583c0.48291,0.34643 1.03931,0.5144 1.58521,0.5144c0.82935,0 1.64819,-0.38843 2.1731,-1.10229l3.64282,-4.98657c0.87134,-1.19678 0.60889,-2.88696 -0.58789,-3.7583c-0.59839,-0.44092 -1.32276,-0.58789 -1.99463,-0.48291zM51.5979,75.49146c-1.0498,-0.03149 -2.05762,0.56689 -2.51953,1.57471l-2.50903,5.56397c-0.60889,1.35425 0,2.94995 1.35425,3.54834c0.35693,0.16797 0.73486,0.24146 1.1023,0.24146c1.02881,0 2.00512,-0.58789 2.45654,-1.58521l2.49854,-5.55347c0.60889,-1.36474 0.0105,-2.94995 -1.35425,-3.55884c-0.33594,-0.14697 -0.68237,-0.23096 -1.02881,-0.23096zM138.94165,91.375h12.3667l0.32544,5.375h-13.01758zM138.28027,102.125h13.67896l3.10742,51.24097c0.16797,2.78198 -0.78735,5.41699 -2.6875,7.43262c-1.91065,2.02613 -4.48267,3.13892 -7.25415,3.13892c-2.77148,0 -5.34351,-1.11279 -7.25415,-3.13892c-1.90015,-2.01562 -2.85547,-4.65063 -2.6875,-7.43262z"></path>
        </g>
    </g>
</svg>