<svg version="1.1" xmlns="http://www.w3.org/2000/svg" viewBox="0 0 172 172">
    <g fill="none" fill-rule="nonzero" stroke="none" stroke-width="1" stroke-linecap="butt" stroke-linejoin="miter"
       stroke-miterlimit="10" stroke-dasharray="" stroke-dashoffset="0" font-family="none" font-weight="none"
       font-size="none" text-anchor="none" style="mix-blend-mode: normal">
        <path d="M0,172v-172h172v172z" fill="none"></path>
        <g id="original-icon" fill="#d5d8dc" opacity="0" visibility="hidden">
            <path d="M146.16641,21.46641c-1.18418,0.0252 -2.1332,0.99941 -2.11641,2.18359v49.45c0,5.96289 -4.78711,10.75 -10.75,10.75v4.3l-2.15,-2.15v51.6c0,4.77031 -3.82969,8.6 -8.6,8.6v4.3c0.30234,0 0.60469,-0.05879 0.88184,-0.17637c6.66836,-0.48711 12.01816,-5.9377 12.01816,-12.72363v-49.88672c7.23105,-1.0918 12.9,-7.08828 12.9,-14.61328v-49.45c0.0084,-0.57949 -0.21836,-1.14219 -0.62988,-1.55371c-0.41152,-0.41152 -0.97422,-0.63828 -1.55371,-0.62988zM34.15645,21.5l-3.96406,55.44649c-1.42774,19.97148 13.54668,36.97832 33.07305,38.80078l0.87344,20.16465l-13.08476,2.62031c-4.66953,0.93223 -8.0541,5.05586 -8.0541,9.81777v2.15h55.9v-2.15c0,-4.76191 -3.38457,-8.88555 -8.0541,-9.81777l-13.08476,-2.62031l0.87344,-20.16465c19.52637,-1.82246 34.49238,-18.8293 33.06465,-38.80078l-3.95566,-55.44649zM120.4,21.5c-1.18418,0 -2.15,0.96582 -2.15,2.15c0,1.18418 0.96582,2.15 2.15,2.15c1.18418,0 2.15,-0.96582 2.15,-2.15c0,-1.18418 -0.96582,-2.15 -2.15,-2.15zM133.3,21.5c-1.18418,0 -2.15,0.96582 -2.15,2.15c0,1.18418 0.96582,2.15 2.15,2.15c1.18418,0 2.15,-0.96582 2.15,-2.15c0,-1.18418 -0.96582,-2.15 -2.15,-2.15zM38.1625,25.8h65.575l3.67852,51.45723c1.31016,18.2834 -12.79082,33.78691 -30.93145,34.47559l-1.98203,0.07559l-1.20098,27.59727l16.69609,3.33418c1.89805,0.37793 3.10742,1.78887 3.83809,3.46016h-45.77148c0.73066,-1.67129 1.94004,-3.08223 3.82969,-3.46016l16.70449,-3.33418l-1.20098,-27.59727l-1.98203,-0.07559c-18.14062,-0.68867 -32.2416,-16.19219 -30.93144,-34.47559zM120.4,30.1c-1.18418,0 -2.15,0.96582 -2.15,2.15c0,1.18418 0.96582,2.15 2.15,2.15c1.18418,0 2.15,-0.96582 2.15,-2.15c0,-1.18418 -0.96582,-2.15 -2.15,-2.15zM133.3,30.1c-1.18418,0 -2.15,0.96582 -2.15,2.15c0,1.18418 0.96582,2.15 2.15,2.15c1.18418,0 2.15,-0.96582 2.15,-2.15c0,-1.18418 -0.96582,-2.15 -2.15,-2.15zM120.4,38.7c-1.18418,0 -2.15,0.96582 -2.15,2.15c0,1.18418 0.96582,2.15 2.15,2.15c1.18418,0 2.15,-0.96582 2.15,-2.15c0,-1.18418 -0.96582,-2.15 -2.15,-2.15zM133.3,38.7c-1.18418,0 -2.15,0.96582 -2.15,2.15c0,1.18418 0.96582,2.15 2.15,2.15c1.18418,0 2.15,-0.96582 2.15,-2.15c0,-1.18418 -0.96582,-2.15 -2.15,-2.15zM120.4,47.3c-1.18418,0 -2.15,0.96582 -2.15,2.15c0,1.18418 0.96582,2.15 2.15,2.15c1.18418,0 2.15,-0.96582 2.15,-2.15c0,-1.18418 -0.96582,-2.15 -2.15,-2.15zM133.3,47.3c-1.18418,0 -2.15,0.96582 -2.15,2.15c0,1.18418 0.96582,2.15 2.15,2.15c1.18418,0 2.15,-0.96582 2.15,-2.15c0,-1.18418 -0.96582,-2.15 -2.15,-2.15zM120.4,55.9c-1.18418,0 -2.15,0.96582 -2.15,2.15c0,1.18418 0.96582,2.15 2.15,2.15c1.18418,0 2.15,-0.96582 2.15,-2.15c0,-1.18418 -0.96582,-2.15 -2.15,-2.15zM133.3,55.9c-1.18418,0 -2.15,0.96582 -2.15,2.15c0,1.18418 0.96582,2.15 2.15,2.15c1.18418,0 2.15,-0.96582 2.15,-2.15c0,-1.18418 -0.96582,-2.15 -2.15,-2.15z"></path>
        </g>
        <g id="subtracted-icon" fill="#d5d8dc">
            <path d="M147.72012,22.09629c0.41153,0.41152 0.63828,0.97422 0.62988,1.55371v49.45c0,7.525 -5.66895,13.52149 -12.9,14.61328l0,11.24573c-1.45599,0.08012 -2.8908,0.2411 -4.3,0.47851v-13.43752l2.15,2.15v-4.3c5.96289,0 10.75,-4.78711 10.75,-10.75v-49.45c-0.0168,-1.18418 0.93223,-2.1584 2.11641,-2.18359c0.57949,-0.0084 1.14219,0.21836 1.55371,0.62988zM107.74355,21.5l3.95566,55.44649c1.42774,19.97148 -13.53828,36.97832 -33.06465,38.80078l-0.87344,20.16465l13.08476,2.62031c4.66953,0.93223 8.0541,5.05586 8.0541,9.81777v2.15h-55.9v-2.15c0,-4.76191 3.38457,-8.88555 8.0541,-9.81777l13.08476,-2.62031l-0.87344,-20.16465c-19.52637,-1.82246 -34.50078,-18.8293 -33.07305,-38.80078l3.96406,-55.44649zM122.55,23.65c0,1.18418 -0.96582,2.15 -2.15,2.15c-1.18418,0 -2.15,-0.96582 -2.15,-2.15c0,-1.18418 0.96582,-2.15 2.15,-2.15c1.18418,0 2.15,0.96582 2.15,2.15zM135.45,23.65c0,1.18418 -0.96582,2.15 -2.15,2.15c-1.18418,0 -2.15,-0.96582 -2.15,-2.15c0,-1.18418 0.96582,-2.15 2.15,-2.15c1.18418,0 2.15,0.96582 2.15,2.15zM34.48399,77.25723c-1.31016,18.2834 12.79082,33.78691 30.93144,34.47559l1.98203,0.07559l1.20098,27.59727l-16.70449,3.33418c-1.88965,0.37793 -3.09902,1.78887 -3.82969,3.46016h45.77148c-0.73066,-1.67129 -1.94004,-3.08223 -3.83809,-3.46016l-16.69609,-3.33418l1.20098,-27.59727l1.98203,-0.07559c18.14063,-0.68867 32.2416,-16.19219 30.93145,-34.47559l-3.67852,-51.45723h-65.575zM122.55,32.25c0,1.18418 -0.96582,2.15 -2.15,2.15c-1.18418,0 -2.15,-0.96582 -2.15,-2.15c0,-1.18418 0.96582,-2.15 2.15,-2.15c1.18418,0 2.15,0.96582 2.15,2.15zM135.45,32.25c0,1.18418 -0.96582,2.15 -2.15,2.15c-1.18418,0 -2.15,-0.96582 -2.15,-2.15c0,-1.18418 0.96582,-2.15 2.15,-2.15c1.18418,0 2.15,0.96582 2.15,2.15zM122.55,40.85c0,1.18418 -0.96582,2.15 -2.15,2.15c-1.18418,0 -2.15,-0.96582 -2.15,-2.15c0,-1.18418 0.96582,-2.15 2.15,-2.15c1.18418,0 2.15,0.96582 2.15,2.15zM135.45,40.85c0,1.18418 -0.96582,2.15 -2.15,2.15c-1.18418,0 -2.15,-0.96582 -2.15,-2.15c0,-1.18418 0.96582,-2.15 2.15,-2.15c1.18418,0 2.15,0.96582 2.15,2.15zM122.55,49.45c0,1.18418 -0.96582,2.15 -2.15,2.15c-1.18418,0 -2.15,-0.96582 -2.15,-2.15c0,-1.18418 0.96582,-2.15 2.15,-2.15c1.18418,0 2.15,0.96582 2.15,2.15zM135.45,49.45c0,1.18418 -0.96582,2.15 -2.15,2.15c-1.18418,0 -2.15,-0.96582 -2.15,-2.15c0,-1.18418 0.96582,-2.15 2.15,-2.15c1.18418,0 2.15,0.96582 2.15,2.15zM122.55,58.05c0,1.18418 -0.96582,2.15 -2.15,2.15c-1.18418,0 -2.15,-0.96582 -2.15,-2.15c0,-1.18418 0.96582,-2.15 2.15,-2.15c1.18418,0 2.15,0.96582 2.15,2.15zM135.45,58.05c0,1.18418 -0.96582,2.15 -2.15,2.15c-1.18418,0 -2.15,-0.96582 -2.15,-2.15c0,-1.18418 0.96582,-2.15 2.15,-2.15c1.18418,0 2.15,0.96582 2.15,2.15z"></path>
        </g>
        <g>
            <g id="Layer_1" fill="#d5d8dc">
                <path d="M137.6,103.2c-18.9673,0 -34.4,15.4327 -34.4,34.4c0,18.9673 15.4327,34.4 34.4,34.4c18.9673,0 34.4,-15.4327 34.4,-34.4c0,-18.9673 -15.4327,-34.4 -34.4,-34.4zM137.6,167.7c-16.598,0 -30.1,-13.502 -30.1,-30.1c0,-16.598 13.502,-30.1 30.1,-30.1c16.598,0 30.1,13.502 30.1,30.1c0,16.598 -13.502,30.1 -30.1,30.1zM140.61215,149.80985c0,2.0167 -1.34375,3.33895 -3.48515,3.33895c-2.10055,0 -3.48515,-1.32225 -3.48515,-3.33895c0,-2.03605 1.38675,-3.3583 3.48515,-3.3583c2.1414,-0.00215 3.48515,1.3201 3.48515,3.3583zM147.31155,130.0105c0,3.2121 -1.5953,5.45885 -4.4505,7.1595c-2.74985,1.6168 -3.52815,2.6875 -3.52815,4.76655v1.19755h-4.8719l-0.0215,-1.4276c-0.1892,-3.14975 1.02985,-5.0396 3.9259,-6.74025c2.60365,-1.5738 3.48515,-2.6875 3.48515,-4.76655c0,-2.1844 -1.763,-3.7582 -4.40965,-3.7582c-2.709,0 -4.4505,1.6383 -4.6182,4.19895h-4.93425c0.1677,-4.9751 3.5905,-8.5871 9.8255,-8.5871c5.7534,0 9.5976,3.31745 9.5976,7.95715z"></path>
            </g>
            <g id="Layer_1" fill="#000000" opacity="0">
                <path d="M137.6,98.9c-21.33875,0 -38.7,17.36125 -38.7,38.7c0,21.33875 17.36125,38.7 38.7,38.7c21.33875,0 38.7,-17.36125 38.7,-38.7c0,-21.33875 -17.36125,-38.7 -38.7,-38.7z"></path>
            </g>
        </g>
    </g>
</svg>