<svg version="1.1" xmlns="http://www.w3.org/2000/svg" xmlns:xlink="http://www.w3.org/1999/xlink" viewBox="0 0 224 224"><g fill="none" fill-rule="nonzero" stroke="none" stroke-width="1" stroke-linecap="butt" stroke-linejoin="miter" stroke-miterlimit="10" stroke-dasharray="" stroke-dashoffset="0" font-family="none" font-weight="none" font-size="none" text-anchor="none" style="mix-blend-mode: normal"><path d="M0,224v-224h224v224z" fill="none"></path><g><g id="surface1"><path d="M200.66667,116.66667c0,-30.33333 -18.66667,-23.33333 -18.66667,-88.66667c0,0 -37.33333,0 -46.66667,0c0,65.33333 -18.66667,58.33333 -18.66667,88.66667v72.33333c0,3.86458 3.13542,7 7,7h70c3.86458,0 7,-3.13542 7,-7z" fill="#fe9a76"></path><path d="M186.66667,25.66667c0,3.86458 -3.13542,7 -7,7h-42c-3.86458,0 -7,-3.13542 -7,-7v-4.66667c0,-3.86458 3.13542,-7 7,-7h42c3.86458,0 7,3.13542 7,7z" fill="#9c27b0"></path><path d="M191.33333,179.66667c0,1.29427 -1.03906,2.33333 -2.33333,2.33333h-60.66667c-1.29427,0 -2.33333,-1.03906 -2.33333,-2.33333v-63c0,-10.09896 2.27864,-14.67448 5.74219,-21.61979c3.11719,-6.27083 6.61719,-13.38021 9.20573,-25.04688h35.4375c2.58854,11.66667 6.10677,18.77604 9.22396,25.04688c3.44531,6.94531 5.72396,11.52083 5.72396,21.61979z" fill="#fafafa"></path><path d="M95.21094,99.18489c0,0 -54.96094,-10.91927 -61.94271,33.63282c-7,44.53385 34.52604,58.47917 46.52083,61.14062c11.99479,2.67969 65.88021,10.00781 77.18229,-38.26302c9.36979,-39.99479 -26.77864,-64.09375 -57.76823,-55.61718z" fill="#f44336"></path><path d="M127.3125,100.77083c-2.60677,2.24219 -5.21354,2.88021 -8.3125,2.88021c-2.625,0 -5.59636,-0.41927 -9.22396,-0.56511c15.27604,2.67969 13.27083,11.68489 25.55729,14.94792c-3.75521,2.40625 -7.36458,3.42708 -10.84636,3.42708c-10.77343,0 -20.03385,-9.75261 -26.54167,-18.22917c6.30729,12.26823 8.56771,22.49479 4.21094,36.76823c-17.57292,-10.73698 -11.41146,-29.84114 -10.62761,-35.29167c-3.77343,10.31771 -11.02864,17.75521 -22.16667,17.75521c-3.95573,0 -8.40364,-0.94792 -13.36198,-3.00782c14.10938,-2.88021 11.83073,-18.11979 29.16667,-18.11979c0.89323,0 1.84114,0.05469 2.82552,0.12761c-2.55208,-1.82292 -9.11458,-1.53125 -15.20313,-3.31771c-12.76042,1.42188 -28.1276,6.38021 -35.67448,22.02083l15.27604,7.89323c5.92448,2.46094 11.63021,3.71875 16.95312,3.71875c4.63021,0 8.93229,-0.92968 12.85156,-2.71614c2.0599,6.78125 6.45313,13.61719 15.09375,18.90364l10.28125,6.27083l3.51823,-11.5026c1.54948,-5.08594 2.35156,-9.77083 2.57031,-14.10938c3.35417,1.34896 6.96354,2.16927 10.80989,2.16927c5.48698,0 10.84636,-1.64063 15.91406,-4.90364l10.26302,-8.20313c-5.65104,-8.20312 -14.27344,-13.72656 -23.33333,-16.91667z" fill="#c62828"></path><path d="M102.15625,140c4.375,-14.27344 2.09636,-24.5 -4.21094,-36.76823c8.60417,11.21094 22.05729,24.66406 37.38802,14.80208c-12.28646,-3.26302 -10.28125,-12.26823 -25.55729,-14.94792c11.44792,0.49219 16.49739,3.57292 24.31771,-12.04948c-12.32292,6.48958 -19.26823,-6.34375 -34.52604,7.40104c-2.69792,1.67708 -5.54167,-2.58854 -7.71094,-0.27344c-11.53906,-19.21354 -25.77604,-3.04427 -31.37239,-17.75521c0,22.62239 22.25781,17.29948 27.50781,21.05469c-20.43489,-1.73177 -17.15364,14.96614 -31.99219,17.99218c18.92188,7.89323 30.40625,-0.76562 35.52864,-14.74739c-0.78385,5.45052 -6.94531,24.55469 10.62761,35.29167z" fill="#4caf50"></path><path d="M90.16146,101.55469c-0.07292,0.65625 1.33073,3.13542 5.86979,3.13542c5.45052,0 3.35417,-2.69792 3.35417,-2.69792c0,0 -0.49219,-15.56771 10.90104,-25.86719c-2.89844,-2.38802 -5.94271,-1.11198 -5.94271,-1.11198c0,0 -12.17708,12.50521 -14.18229,26.54167z" fill="#4caf50"></path></g></g></g></svg>