<svg version="1.1" xmlns="http://www.w3.org/2000/svg" viewBox="0 0 224 224">
    <g fill="none" fill-rule="nonzero" stroke="none" stroke-width="1" stroke-linecap="butt" stroke-linejoin="miter"
       stroke-miterlimit="10" stroke-dasharray="" stroke-dashoffset="0" font-family="none" font-weight="none"
       font-size="none" text-anchor="none" style="mix-blend-mode: normal">
        <path d="M0,224v-224h224v224z" fill="none"></path>
        <g id="Layer_1">
            <path d="M164.99,46.66667l33.86133,-30.1c3.84067,-3.836 0.96133,-8.02667 -2.87933,-11.86267c-3.84067,-3.84067 -8.022,-6.72 -11.86267,-2.87933l-39.312,44.226c-0.21467,0.21933 -0.37333,0.41067 -0.56467,0.616z"
                  fill="#f2711c"></path>
            <path d="M182,56l-10.78,121.33333l-0.88667,9.98667c-1.21333,10.26667 -10.03333,18.01333 -20.53333,18.01333h-75.6c-10.5,0 -19.32,-7.74667 -20.53333,-18.01333l-0.88667,-9.98667l-10.78,-121.33333z"
                  fill="#90caf9"></path>
            <path d="M37.33333,56c-2.576,0 -4.66667,-2.09067 -4.66667,-4.66667v-9.33333c0,-2.576 2.09067,-4.66667 4.66667,-4.66667h149.33333c2.576,0 4.66667,2.09067 4.66667,4.66667v9.33333c0,2.576 -2.09067,4.66667 -4.66667,4.66667z"
                  fill="#64b5f6"></path>
            <path d="M180.18,74.66667l-8.96,102.66667h-118.44l-8.96,-102.66667z" fill="#2196f3"></path>
            <circle cx="24" cy="27" transform="scale(4.66667,4.66667)" r="8" fill="#ffffff"></circle>
            <path d="M126.602,121.93067c-5.23133,5.23133 -14.38267,3.92467 -14.38267,3.92467c0,0 -1.302,-9.156 3.92467,-14.38267c5.23133,-5.22667 14.38267,-3.92 14.38267,-3.92c0,0 1.302,9.14667 -3.92467,14.378z"
                  fill="#388e3c"></path>
            <path d="M124.53933,130.66667c-6.16933,0 -10.794,-6.16933 -10.794,-6.16933c0,0 4.62933,-6.16933 10.794,-6.16933c6.16933,0 10.794,6.16933 10.794,6.16933c0,0 -4.62467,6.16933 -10.794,6.16933z"
                  fill="#388e3c"></path>
            <path d="M119.742,113.53067c0,6.16933 -6.16933,10.794 -6.16933,10.794c0,0 -6.16933,-4.62933 -6.16933,-10.794c0,-6.16933 6.16933,-10.794 6.16933,-10.794c0,0 6.16933,4.62467 6.16933,10.794z"
                  fill="#388e3c"></path>
            <path d="M122.738,140.46667c-4.37733,4.382 -14.42467,8.86667 -22.456,8.86667c-4.09267,0 -7.014,-2.338 -8.18067,-3.50467c-1.17133,-1.17133 -3.43467,-3.50933 -3.43467,-8.18533c0,-8.01733 4.49867,-18.018 8.86667,-22.38133c6.26267,-6.26733 14.04667,-2.758 21.00467,4.20467c6.958,6.958 10.46267,14.73733 4.2,21z"
                  fill="#ff1744"></path>
        </g>
    </g>
</svg>