<svg version="1.1" xmlns="http://www.w3.org/2000/svg" xmlns:xlink="http://www.w3.org/1999/xlink" viewBox="0 0 224 224"><g fill="none" fill-rule="nonzero" stroke="none" stroke-width="1" stroke-linecap="butt" stroke-linejoin="miter" stroke-miterlimit="10" stroke-dasharray="" stroke-dashoffset="0" font-family="none" font-weight="none" font-size="none" text-anchor="none" style="mix-blend-mode: normal"><path d="M0,224v-224h224v224z" fill="none"></path><g><g id="surface1"><path d="M177.33333,205.33333h-121.33333v-186.66667h121.33333c10.26302,0 18.66667,8.40364 18.66667,18.66667v149.33333c0,10.26302 -8.40364,18.66667 -18.66667,18.66667z" fill="#eaae00"></path><path d="M46.66667,18.66667h9.33333v186.66667h-9.33333c-10.26302,0 -18.66667,-8.40364 -18.66667,-18.66667v-149.33333c0,-10.26302 8.40364,-18.66667 18.66667,-18.66667z" fill="#bf360c"></path><path d="M140,93.33333c0,10.31771 -8.34896,18.66667 -18.66667,18.66667c-10.31771,0 -18.66667,-8.34896 -18.66667,-18.66667c0,-10.31771 8.34896,-18.66667 18.66667,-18.66667c10.31771,0 18.66667,8.34896 18.66667,18.66667z" fill="#ab300b"></path><path d="M154,140c0,0 -8.85937,-18.66667 -32.66667,-18.66667c-23.80729,0 -32.66667,18.66667 -32.66667,18.66667v9.33333h65.33333z" fill="#ab300b"></path></g></g></g></svg>