<svg version="1.1" xmlns="http://www.w3.org/2000/svg" xmlns:xlink="http://www.w3.org/1999/xlink" viewBox="0 0 224 224"><g fill="none" fill-rule="nonzero" stroke="none" stroke-width="1" stroke-linecap="butt" stroke-linejoin="miter" stroke-miterlimit="10" stroke-dasharray="" stroke-dashoffset="0" font-family="none" font-weight="none" font-size="none" text-anchor="none" style="mix-blend-mode: normal"><path d="M0,224v-224h224v224z" fill="none"></path><g id="Layer_1"><path d="M102.66667,196h-79.33333c-5.13333,0 -9.33333,-4.2 -9.33333,-9.33333v-130.66667c0,-5.13333 4.2,-9.33333 9.33333,-9.33333h79.33333c5.13333,0 9.33333,4.2 9.33333,9.33333v130.66667c0,5.13333 -4.2,9.33333 -9.33333,9.33333z" fill="#a7bd0d"></path><path d="M102.66667,46.66667h-79.33333c-5.13333,0 -9.33333,4.2 -9.33333,9.33333v28h98v-28c0,-5.13333 -4.2,-9.33333 -9.33333,-9.33333z" fill="#f9a825"></path><circle cx="8" cy="14" transform="scale(4.66667,4.66667)" r="2" fill="#f57c00"></circle><circle cx="19" cy="14" transform="scale(4.66667,4.66667)" r="2" fill="#f57c00"></circle><path d="M200.66667,196h-79.33333c-5.13333,0 -9.33333,-4.2 -9.33333,-9.33333v-130.66667c0,-5.13333 4.2,-9.33333 9.33333,-9.33333h79.33333c5.13333,0 9.33333,4.2 9.33333,9.33333v130.66667c0,5.13333 -4.2,9.33333 -9.33333,9.33333z" fill="#42a5f5"></path><path d="M200.66667,46.66667h-79.33333c-5.13333,0 -9.33333,4.2 -9.33333,9.33333v28h98v-28c0,-5.13333 -4.2,-9.33333 -9.33333,-9.33333z" fill="#2196f3"></path><circle cx="29" cy="14" transform="scale(4.66667,4.66667)" r="2" fill="#1976d2"></circle><circle cx="40" cy="14" transform="scale(4.66667,4.66667)" r="2" fill="#1976d2"></circle><path d="M135.33333,70c-2.8,0 -4.66667,-1.86667 -4.66667,-4.66667v-32.66667c0,-2.8 1.86667,-4.66667 4.66667,-4.66667c2.8,0 4.66667,1.86667 4.66667,4.66667v32.66667c0,2.8 -1.86667,4.66667 -4.66667,4.66667z" fill="#b0bec5"></path><path d="M186.66667,70c-2.8,0 -4.66667,-1.86667 -4.66667,-4.66667v-32.66667c0,-2.8 1.86667,-4.66667 4.66667,-4.66667c2.8,0 4.66667,1.86667 4.66667,4.66667v32.66667c0,2.8 -1.86667,4.66667 -4.66667,4.66667z" fill="#b0bec5"></path><path d="M37.33333,70c-2.8,0 -4.66667,-1.86667 -4.66667,-4.66667v-32.66667c0,-2.8 1.86667,-4.66667 4.66667,-4.66667c2.8,0 4.66667,1.86667 4.66667,4.66667v32.66667c0,2.8 -1.86667,4.66667 -4.66667,4.66667z" fill="#b0bec5"></path><path d="M88.66667,70c-2.8,0 -4.66667,-1.86667 -4.66667,-4.66667v-32.66667c0,-2.8 1.86667,-4.66667 4.66667,-4.66667c2.8,0 4.66667,1.86667 4.66667,4.66667v32.66667c0,2.8 -1.86667,4.66667 -4.66667,4.66667z" fill="#b0bec5"></path><path d="M74.66667,168h-14v-48.06667l-14,4.2v-11.66667l26.6,-9.8h1.4z" fill="#ffffff"></path><path d="M182,140.93333c0,8.4 -1.86667,15.4 -5.6,20.06667c-3.73333,4.66667 -8.86667,7 -15.4,7c-6.53333,0 -11.66667,-2.33333 -15.4,-7c-3.73333,-4.66667 -5.6,-11.2 -5.6,-19.6v-11.66667c0,-8.4 1.86667,-15.4 5.6,-20.06667c3.73333,-4.66667 8.86667,-7 15.4,-7c6.53333,0 11.66667,2.33333 15.4,7c3.73333,4.66667 5.6,11.2 5.6,20.06667v11.2zM168,127.86667c0,-4.66667 -0.46667,-7.93333 -1.86667,-10.26667c-0.93333,-2.33333 -2.8,-3.26667 -5.6,-3.26667c-2.33333,0 -4.2,0.93333 -5.13333,3.26667c-0.93333,1.86667 -1.86667,5.13333 -1.86667,9.33333v16.33333c0,4.66667 0.46667,8.4 1.86667,10.26667c0.93333,2.33333 2.8,3.26667 5.6,3.26667c2.33333,0 4.2,-0.93333 5.13333,-3.26667c0.93333,-2.33333 1.86667,-5.6 1.86667,-10.26667v-15.4z" fill="#ffffff"></path></g></g></svg>