<svg version="1.1" xmlns="http://www.w3.org/2000/svg" xmlns:xlink="http://www.w3.org/1999/xlink" viewBox="0 0 224 224"><g fill="none" fill-rule="nonzero" stroke="none" stroke-width="1" stroke-linecap="butt" stroke-linejoin="miter" stroke-miterlimit="10" stroke-dasharray="" stroke-dashoffset="0" font-family="none" font-weight="none" font-size="none" text-anchor="none" style="mix-blend-mode: normal"><path d="M0,224v-224h224v224z" fill="none"></path><g id="Layer_1"><path d="M126,18.66667h-28c-7.93333,0 -14,6.06667 -14,14v14h9.33333v-14c0,-2.8 1.86667,-4.66667 4.66667,-4.66667h28c2.8,0 4.66667,1.86667 4.66667,4.66667v14h9.33333v-14c0,-7.93333 -6.06667,-14 -14,-14z" fill="#9627ba"></path><path d="M205.33333,56v112c0,10.26667 -8.4,18.66667 -18.66667,18.66667h-149.33333c-10.26667,0 -18.66667,-8.4 -18.66667,-18.66667v-112c0,-10.26667 8.4,-18.66667 18.66667,-18.66667h149.33333c10.26667,0 18.66667,8.4 18.66667,18.66667z" fill="#6d4c41"></path><path d="M186.66667,116.66667h-149.33333c-10.26667,0 -18.66667,-8.4 -18.66667,-18.66667v-42c0,-10.26667 8.4,-18.66667 18.66667,-18.66667h149.33333c10.26667,0 18.66667,8.4 18.66667,18.66667v42c0,10.26667 -8.4,18.66667 -18.66667,18.66667z" fill="#8d6e63"></path><path d="M121.33333,107.33333h-18.66667c-2.8,0 -4.66667,-1.86667 -4.66667,-4.66667v-9.33333c0,-2.8 1.86667,-4.66667 4.66667,-4.66667h18.66667c2.8,0 4.66667,1.86667 4.66667,4.66667v9.33333c0,2.8 -1.86667,4.66667 -4.66667,4.66667z" fill="#fff3e0"></path><path d="M224,216.11333l-7.88667,7.88667l-14.7,-14.74667l-14,-14l7.84,-7.84l14,14z" fill="#78909c"></path><path d="M200.66667,165.66667c0,19.38533 -15.61467,35 -35,35c-19.38533,0 -35,-15.61467 -35,-35c0,-19.38533 15.61467,-35 35,-35c19.38533,0 35,15.61467 35,35" fill="#bbdefb"></path><path d="M165.66667,126c-21.90533,0 -39.66667,17.76133 -39.66667,39.66667c0,21.90533 17.76133,39.66667 39.66667,39.66667c21.90533,0 39.66667,-17.76133 39.66667,-39.66667c0,-21.90533 -17.76133,-39.66667 -39.66667,-39.66667zM165.66667,196c-16.75333,0 -30.33333,-13.58 -30.33333,-30.33333c0,-16.75333 13.58,-30.33333 30.33333,-30.33333c16.75333,0 30.33333,13.58 30.33333,30.33333c0,16.75333 -13.58,30.33333 -30.33333,30.33333z" fill="#78909c"></path><path d="M224,216.11333l-7.88667,7.88667l-14.7,-14.74667l7.84,-7.84z" fill="#37474f"></path><path d="M177.072,158.66667c-1.176,0 -2.35667,-0.44333 -3.262,-1.33c-4.396,-4.30267 -11.89067,-4.30267 -16.28667,0c-1.84333,1.806 -4.79733,1.764 -6.59867,-0.07467c-1.80133,-1.84333 -1.76867,-4.79267 0.07467,-6.59867c3.95267,-3.86867 9.16067,-5.99667 14.66733,-5.99667c5.50667,0 10.71467,2.128 14.672,5.99667c1.84333,1.806 1.876,4.76 0.07467,6.59867c-0.91933,0.93333 -2.128,1.40467 -3.34133,1.40467z" fill="#e3f2fd"></path></g></g></svg>