<svg version="1.1" xmlns="http://www.w3.org/2000/svg" xmlns:xlink="http://www.w3.org/1999/xlink" viewBox="0 0 224 224"><g fill="none" fill-rule="nonzero" stroke="none" stroke-width="1" stroke-linecap="butt" stroke-linejoin="miter" stroke-miterlimit="10" stroke-dasharray="" stroke-dashoffset="0" font-family="none" font-weight="none" font-size="none" text-anchor="none" style="mix-blend-mode: normal"><path d="M0,224v-224h224v224z" fill="none"></path><g id="Layer_1"><g id="surface1_119_"><path d="M112,18.66667c-51.58067,0 -93.33333,41.75267 -93.33333,93.33333c0,51.58067 41.75267,93.33333 93.33333,93.33333c51.58067,0 93.33333,-41.75267 93.33333,-93.33333c0,-51.58067 -41.75267,-93.33333 -93.33333,-93.33333z" fill="#ff1493"></path><path d="M112,37.33333c-41.31867,0 -74.66667,33.348 -74.66667,74.66667c0,41.31867 33.348,74.66667 74.66667,74.66667c41.31867,0 74.66667,-33.348 74.66667,-74.66667c0,-41.31867 -33.348,-74.66667 -74.66667,-74.66667zM112,168c-31.06133,0 -56,-24.93867 -56,-56c0,-31.06133 24.93867,-56 56,-56c31.06133,0 56,24.93867 56,56c0,31.06133 -24.93867,56 -56,56zM112,74.66667c-20.79,0 -37.33333,16.54333 -37.33333,37.33333c0,20.79 16.54333,37.33333 37.33333,37.33333c20.79,0 37.33333,-16.54333 37.33333,-37.33333c0,-20.79 -16.54333,-37.33333 -37.33333,-37.33333zM112,130.66667c-10.57467,0 -18.66667,-8.092 -18.66667,-18.66667c0,-10.57467 8.092,-18.66667 18.66667,-18.66667c10.57467,0 18.66667,8.092 18.66667,18.66667c0,10.57467 -8.092,18.66667 -18.66667,18.66667z" fill="#ffffff"></path><path d="M200.66667,42c0,0 -2.80933,10.738 -10.262,17.738c-7.476,7.45733 -37.33333,11.19067 -37.33333,11.19067c0,0 3.738,-30.33333 11.19067,-37.33333c7,-7.45267 17.738,-10.262 17.738,-10.262v18.66667z" fill="#1976d2"></path><path d="M199.262,24.738c-1.85733,-1.876 -4.66667,-1.876 -6.524,0l-84,84c-1.876,1.85733 -1.876,4.66667 0,6.524c0.92867,0.92867 2.33333,1.40467 3.262,1.40467c0.92867,0 2.33333,-0.476 3.262,-1.40467l84,-84c1.88067,-1.85733 1.88067,-4.66667 0,-6.524z" fill="#37474f"></path><path d="M181.89267,36.05933l6.59867,6.59867l-27.37933,27.398l-6.59867,-6.59867z" fill="#42a5f5"></path></g></g></g></svg>