<svg version="1.1" xmlns="http://www.w3.org/2000/svg" xmlns:xlink="http://www.w3.org/1999/xlink" viewBox="0 0 224 224"><g fill="none" fill-rule="nonzero" stroke="none" stroke-width="1" stroke-linecap="butt" stroke-linejoin="miter" stroke-miterlimit="10" stroke-dasharray="" stroke-dashoffset="0" font-family="none" font-weight="none" font-size="none" text-anchor="none" style="mix-blend-mode: normal"><path d="M0,224v-224h224v224z" fill="none"></path><g><g id="surface1"><path d="M129.26302,81.66667c6.07031,17.26302 -12.59636,56.47396 -29.40364,62.52604l-39.19271,-109.19271c34.07031,-12.14062 50.40364,-5.14062 50.40364,-5.14062z" fill="#008080"></path><path d="M37.33333,115.26302c6.07031,17.26302 45.73698,35.47396 62.52604,29.40364l-39.19271,-109.66667c-34.07031,12.14063 -42,28 -42,28z" fill="#ffa000"></path><path d="M106.85938,73.73698c0,0 -10.26302,-7.47396 -24.26302,-4.21093c0,0 1.40364,-9.78907 9.33333,-9.78907c11.21094,-0.47396 14.92969,14 14.92969,14z" fill="#693d14"></path><path d="M86.33333,105.92969c15.85938,-5.59636 26.14063,0 26.14063,0c0,0 -13.07032,-16.78906 -29.87761,-10.73698c-16.78906,6.07031 -16.33333,27.07031 -16.33333,27.07031c0,0 4.21094,-10.73698 20.07031,-16.33333z" fill="#693d14"></path><path d="M49.47396,94.26302c0,0 2.78906,-12.59636 15.85937,-18.66667c0,0 -7.47396,-6.52604 -13.52604,-1.40364c-8.40365,6.54427 -2.33333,20.07031 -2.33333,20.07031z" fill="#693d14"></path><path d="M188.52604,158.19271c-5.59636,19.61458 -47.59636,42.47396 -66.71875,36.8776l35.45573,-123.21093c38.26302,11.21093 48.07031,28 48.07031,28z" fill="#ffb300"></path><path d="M84.92969,128.33333c-5.59636,19.59636 17.73698,61.59636 36.87761,66.73698l35.45573,-123.21093c-38.26302,-10.71875 -55.52604,-1.85938 -55.52604,-1.85938z" fill="#ffc107"></path><path d="M178.73698,131.14063c0,0 -7,-9.80729 -24.73698,-12.14063c0,0 7,-7 15.40364,-4.66667c9.78907,2.80729 9.33333,16.80729 9.33333,16.80729z" fill="#694a14"></path><path d="M107.80729,110.59636c0,0 11.19271,-4.66667 27.05208,2.80729c0,0 -2.33333,-9.80729 -10.71875,-12.14062c-9.33333,-2.78906 -16.33333,9.33333 -16.33333,9.33333z" fill="#694a14"></path><path d="M134.85938,149.33333c-20.05208,-5.59636 -26.1224,-19.14062 -26.1224,-19.14062c0,0 0.92969,26.14062 22.40365,32.21093c21.45573,6.07032 35.92968,-15.40364 35.92968,-15.40364c0,0 -12.14062,8.40364 -32.21093,2.33333z" fill="#694a14"></path></g></g></g></svg>