<svg xmlns="http://www.w3.org/2000/svg" viewBox="0 0 48 48" version="1.1">
    <g id="surface1">
        <path style=" fill:#D84315;"
              d="M 45 20.800781 C 45 21.300781 44.699219 21.699219 44.300781 21.898438 C 43.601563 22.101563 42.601563 22 41.898438 21.699219 C 40.800781 21.300781 39.800781 20.699219 38.601563 20.898438 C 37.699219 21.101563 37 21.699219 36.101563 21.800781 C 35 21.898438 34.101563 22 33.199219 21.398438 C 31.601563 20.398438 29.601563 19.699219 27.898438 20.5 C 27.300781 20.800781 26.898438 21.199219 26.300781 21.5 C 25.5 21.898438 24.5 22 23.601563 21.800781 C 21.800781 21.300781 19.898438 19.800781 18.601563 19.800781 C 17.300781 19.800781 16.398438 20.699219 15.300781 21.300781 C 13.699219 22.199219 11.699219 22 10 21.300781 C 8.800781 20.699219 8.101563 19.800781 7 19.800781 C 5.699219 19.800781 4.699219 21.199219 4 21.699219 C 3.601563 22 3 21.699219 3 21.199219 L 3 9.898438 C 3 9.5 3.101563 9 3.398438 8.699219 C 4 7.898438 5.199219 6.898438 6.300781 7 C 7.601563 7.101563 8.601563 7.601563 9.800781 8.199219 C 11.5 9 13.398438 9.5 14.898438 8.601563 C 16 8 17.199219 7.300781 18.5 7.101563 C 20.300781 6.898438 21.699219 8.699219 23.5 9.199219 C 24.398438 9.398438 25.398438 9.300781 26.199219 8.898438 C 26.699219 8.601563 27.199219 8.199219 27.800781 7.898438 C 29.5 7.101563 31.5 7.800781 33.101563 8.800781 C 34.101563 9.199219 35 9 36.101563 8.898438 C 37 8.800781 37.699219 8.199219 38.601563 8 C 39.699219 7.800781 40.800781 8.398438 41.898438 8.800781 C 42.601563 9.101563 43.601563 9.199219 44.300781 9 C 44.601563 8.898438 45 9.199219 45 9.601563 Z "></path>
        <path style=" fill:#FF5722;"
              d="M 45 39.800781 C 45 40.300781 44.699219 40.699219 44.300781 40.898438 C 43.601563 41.101563 42.601563 41 41.898438 40.699219 C 40.800781 40.300781 39.800781 39.699219 38.601563 39.898438 C 37.699219 40.101563 37 40.699219 36.101563 40.800781 C 35 40.898438 34.101563 41 33.199219 40.398438 C 31.601563 39.398438 29.601563 38.699219 27.898438 39.5 C 27.300781 39.800781 26.898438 40.199219 26.300781 40.5 C 25.5 40.898438 24.5 41 23.601563 40.800781 C 21.800781 40.300781 19.898438 38.800781 18.601563 38.800781 C 17.300781 38.800781 16.398438 39.699219 15.300781 40.398438 C 13.699219 41.300781 11.699219 41.101563 10 40.398438 C 8.800781 39.800781 8.101563 38.898438 7 38.898438 C 5.699219 38.898438 4.699219 40.300781 4 40.800781 C 3.601563 41.101563 3 40.800781 3 40.300781 L 3 28.699219 C 3 28.300781 3.101563 27.898438 3.398438 27.5 C 4.101563 26.601563 5.199219 25.898438 6.398438 26 C 7.699219 26.101563 8.699219 26.398438 9.898438 27 C 11.601563 27.800781 13.5 28.300781 15 27.398438 C 16.101563 26.800781 17.300781 26.300781 18.601563 26.101563 C 20.398438 25.898438 21.800781 27.5 23.601563 28 C 24.5 28.300781 25.5 28.101563 26.300781 27.699219 C 26.800781 27.398438 27.300781 27 27.898438 26.699219 C 29.601563 25.898438 31.601563 26.601563 33.199219 27.601563 C 34.101563 28.199219 35 28 36.101563 27.898438 C 37 27.800781 37.699219 27.199219 38.601563 27 C 39.699219 26.800781 40.800781 27.398438 41.898438 27.800781 C 42.601563 28.101563 43.601563 28.199219 44.300781 28 C 44.699219 27.898438 45.101563 28.199219 45.101563 28.601563 Z "></path>
        <path style=" fill:#FFF3E0;"
              d="M 44.300781 18.601563 C 43.898438 18.699219 43.398438 18.699219 43 18.699219 C 42.601563 18.699219 42.101563 18.5 41.601563 18.300781 C 41.300781 18.101563 40.898438 18 40.5 17.800781 C 39.800781 17.5 39.101563 17.300781 38.5 17.398438 C 38.300781 17.398438 38.101563 17.5 37.898438 17.601563 C 37.601563 17.699219 37.398438 17.800781 37.101563 17.898438 C 36.398438 18.101563 35.699219 18.300781 34.898438 18.300781 C 34.5 18.300781 34.199219 18.199219 33.699219 18.101563 C 33.300781 18 32.898438 17.800781 32.699219 17.601563 C 32.101563 17.199219 31.699219 17 31.199219 16.800781 C 30.101563 16.398438 28.898438 16.300781 27.898438 16.800781 L 27 17.300781 L 26.601563 17.601563 L 26.398438 17.699219 L 26.199219 17.699219 L 26 17.898438 C 25.101563 18.300781 24.199219 18.199219 23.300781 17.898438 C 22.5 17.601563 21.898438 17.101563 21.398438 16.699219 C 20.800781 16.300781 20.300781 16 19.699219 15.800781 C 19.101563 15.601563 18.5 15.601563 18 15.800781 C 17.398438 16 16.898438 16.300781 16.398438 16.699219 L 15.601563 17.300781 L 15.199219 17.601563 L 15.101563 17.699219 C 15 17.800781 15 17.800781 15 17.800781 C 14.898438 17.800781 14.898438 17.898438 14.800781 17.898438 C 14.101563 18.199219 13.398438 18.199219 12.800781 18.199219 C 12.199219 18.199219 11.5 18 11 17.800781 C 10.398438 17.601563 10 17.300781 9.5 17 C 8.601563 16.398438 7.800781 16 6.898438 15.800781 C 6.101563 15.601563 5.300781 15.699219 4.800781 15.898438 C 4.199219 16.101563 3.800781 16.300781 3.5 16.5 C 3.101563 16.699219 3 16.800781 3 16.800781 C 3 16.800781 3.101563 16.699219 3.398438 16.5 C 3.601563 16.300781 4 16 4.601563 15.800781 C 5.199219 15.601563 6 15.398438 6.800781 15.5 C 7.699219 15.601563 8.601563 16 9.5 16.5 C 10 16.699219 10.5 17 11 17.199219 C 11.5 17.398438 12.101563 17.5 12.601563 17.5 C 13.199219 17.5 13.800781 17.398438 14.199219 17.199219 C 14.300781 17.199219 14.300781 17.101563 14.398438 17.101563 C 14.398438 17.101563 14.5 17 14.5 17.101563 L 14.601563 17 L 15.398438 16.398438 L 15.800781 16.101563 C 16.300781 15.699219 16.898438 15.199219 17.699219 15 C 18.398438 14.699219 19.300781 14.699219 20.101563 14.898438 C 21.699219 15.199219 22.898438 16.300781 23.898438 16.699219 C 24.398438 16.898438 24.898438 16.800781 25.300781 16.601563 C 25.898438 16.199219 26.398438 15.800781 27 15.398438 C 28.5 14.601563 30.300781 14.601563 31.699219 15 C 32.398438 15.199219 33.199219 15.601563 33.699219 15.898438 C 34 16 34.199219 16.101563 34.398438 16.199219 C 34.5 16.199219 34.800781 16.300781 35 16.199219 C 35.398438 16.199219 35.898438 16.101563 36.300781 15.898438 C 36.5 15.800781 36.800781 15.699219 37 15.5 C 37.300781 15.398438 37.601563 15.199219 38 15.101563 C 38.699219 14.898438 39.398438 14.898438 40 15 C 40.601563 15.101563 41.101563 15.300781 41.601563 15.398438 C 42 15.601563 42.398438 15.699219 42.800781 15.800781 C 43 15.898438 43.199219 15.898438 43.398438 15.898438 C 43.601563 15.898438 43.601563 15.898438 43.699219 15.898438 C 43.898438 15.800781 44.101563 15.800781 44.300781 15.699219 C 44.398438 15.699219 44.800781 15.398438 45.199219 15.199219 L 45.199219 18.601563 C 45.199219 18.601563 45.101563 18.601563 45.101563 18.601563 C 44.699219 18.5 44.5 18.601563 44.300781 18.601563 Z M 4.199219 10.5 C 3.699219 10.601563 3.300781 10.800781 3 11 L 3 14.898438 C 3.601563 14.398438 4.199219 13.800781 4.300781 13.699219 C 4.5 13.601563 4.800781 13.398438 5.101563 13.199219 C 5.5 13 6 12.898438 6.601563 13 C 7.199219 13.101563 7.898438 13.398438 8.898438 13.898438 C 9.101563 14 9.398438 14.101563 9.601563 14.300781 L 9.800781 14.398438 L 10 14.5 L 10.101563 14.5 C 10.199219 14.5 10.398438 14.601563 10.601563 14.699219 C 11.300781 14.898438 12 15.101563 12.699219 15.101563 C 13.398438 15.101563 14.199219 15 15 14.601563 C 15.800781 14.199219 16.300781 13.699219 16.800781 13.300781 C 17.300781 12.898438 17.699219 12.601563 18.199219 12.398438 C 18.300781 12.398438 18.398438 12.300781 18.601563 12.300781 L 18.699219 12.300781 C 18.699219 12.300781 18.800781 12.300781 18.800781 12.300781 C 18.898438 12.300781 19 12.300781 19 12.300781 C 19.199219 12.300781 19.5 12.300781 19.699219 12.398438 C 20.199219 12.5 20.800781 12.800781 21.398438 13.101563 C 22 13.398438 22.601563 13.898438 23.398438 14.199219 C 24.199219 14.5 25.199219 14.5 26 14.101563 C 26.800781 13.699219 27.199219 13.199219 27.800781 12.898438 C 28.800781 12.300781 30.101563 12.300781 31.300781 12.601563 C 32.398438 12.898438 33.601563 13.699219 35 13.800781 C 35.699219 13.800781 36.300781 13.699219 36.898438 13.398438 C 37.5 13.101563 37.898438 12.898438 38.398438 12.800781 C 39.300781 12.5 40.300781 12.800781 41.101563 13 C 41.898438 13.300781 42.601563 13.601563 43.300781 13.699219 C 43.601563 13.699219 43.898438 13.699219 44.199219 13.601563 C 44.398438 13.5 44.601563 13.398438 44.800781 13.398438 C 45.101563 13.300781 45.300781 13.199219 45.300781 13.199219 C 45.300781 13.199219 45.101563 13.199219 44.800781 13.300781 C 44.5 13.300781 44 13.5 43.398438 13.398438 C 42.800781 13.398438 42.199219 13 41.398438 12.601563 C 40.601563 12.300781 39.601563 11.898438 38.398438 12.199219 C 37.800781 12.300781 37.300781 12.601563 36.800781 12.800781 C 36.300781 13 35.800781 13.101563 35.300781 13 C 34.800781 12.898438 34.199219 12.699219 33.699219 12.398438 C 33.199219 12.101563 32.5 11.800781 31.898438 11.601563 C 30.601563 11.199219 28.898438 11 27.5 11.699219 C 26.800781 12 26.199219 12.601563 25.800781 12.699219 C 25.300781 12.898438 24.800781 12.898438 24.300781 12.601563 C 23.300781 12.101563 22.199219 11 20.5 10.5 C 20.101563 10.398438 19.699219 10.300781 19.199219 10.300781 C 19.101563 10.300781 19 10.300781 18.898438 10.300781 C 18.800781 10.300781 18.898438 10.300781 18.699219 10.300781 L 18.5 10.300781 C 18.300781 10.300781 18.101563 10.398438 17.898438 10.398438 C 17.101563 10.699219 16.398438 11.101563 15.800781 11.5 C 15.199219 11.898438 14.800781 12.300781 14.398438 12.398438 C 14 12.601563 13.5 12.601563 13.101563 12.601563 C 12.601563 12.601563 12.199219 12.398438 11.800781 12.300781 C 11.699219 12.300781 11.601563 12.199219 11.5 12.199219 L 11.398438 12.199219 C 11.5 12.300781 11.398438 12.199219 11.5 12.199219 L 10.800781 12 C 10.601563 11.898438 10.300781 11.699219 10.101563 11.601563 C 9.300781 11.101563 8.199219 10.5 7.101563 10.300781 C 6 10 4.898438 10.199219 4.199219 10.5 Z M 44.898438 37.5 C 44.898438 37.5 45 37.5 44.898438 37.5 L 45 34.101563 C 44.601563 34.398438 44.199219 34.601563 44.101563 34.601563 C 43.898438 34.601563 43.699219 34.699219 43.5 34.800781 C 43.398438 34.800781 43.398438 34.800781 43.199219 34.800781 C 43 34.800781 42.800781 34.800781 42.601563 34.699219 C 42.199219 34.601563 41.898438 34.398438 41.398438 34.300781 C 41 34.101563 40.398438 34 39.800781 33.898438 C 39.199219 33.800781 38.5 33.800781 37.800781 34 C 37.5 34.101563 37.101563 34.199219 36.800781 34.398438 C 36.601563 34.5 36.300781 34.601563 36.101563 34.800781 C 35.699219 35 35.300781 35.101563 34.800781 35.101563 C 34.601563 35.101563 34.300781 35.101563 34.199219 35.101563 C 34 35.101563 33.800781 35 33.5 34.800781 C 33 34.5 32.199219 34.101563 31.5 33.898438 C 30.101563 33.5 28.300781 33.398438 26.800781 34.300781 C 26.199219 34.699219 25.699219 35.101563 25.101563 35.5 C 24.699219 35.699219 24.101563 35.800781 23.699219 35.601563 C 22.601563 35.199219 21.398438 34.101563 19.898438 33.800781 C 19.101563 33.601563 18.300781 33.699219 17.5 33.898438 C 16.800781 34.199219 16.199219 34.601563 15.601563 35 L 15.199219 35.300781 L 14.800781 35.601563 L 14.398438 35.898438 L 14.300781 36 C 14.398438 36 14.300781 36 14.199219 36 C 14.101563 36 14.101563 36.101563 14 36.101563 C 13.5 36.300781 12.898438 36.398438 12.398438 36.398438 C 11.800781 36.398438 11.300781 36.300781 10.800781 36.101563 C 10.300781 35.898438 9.800781 35.699219 9.300781 35.398438 C 8.398438 34.898438 7.398438 34.5 6.601563 34.398438 C 5.699219 34.300781 4.898438 34.398438 4.398438 34.699219 C 3.800781 34.898438 3.398438 35.199219 3.199219 35.398438 C 3.101563 35.699219 3 35.800781 3 35.800781 C 3 35.800781 3.101563 35.699219 3.398438 35.5 C 3.699219 35.300781 4.101563 35.101563 4.699219 34.898438 C 5.300781 34.699219 6 34.601563 6.800781 34.800781 C 7.601563 35 8.5 35.398438 9.398438 36 C 9.898438 36.199219 10.300781 36.601563 10.898438 36.800781 C 11.5 37 12.101563 37.199219 12.699219 37.199219 C 13.300781 37.199219 14 37.199219 14.699219 36.898438 C 14.800781 36.898438 14.898438 36.800781 14.898438 36.800781 C 15 36.800781 14.898438 36.800781 15 36.699219 L 15.101563 36.601563 L 15.5 36.300781 L 16 36 L 16.398438 35.699219 C 16.898438 35.300781 17.398438 35 18 34.800781 C 18.5 34.601563 19.199219 34.699219 19.699219 34.800781 C 20.300781 35 20.800781 35.300781 21.398438 35.699219 C 22 36.101563 22.5 36.5 23.300781 36.898438 C 24.101563 37.300781 25.101563 37.300781 26 36.898438 L 26.199219 36.800781 L 26.398438 36.800781 L 26.601563 36.699219 L 27 36.398438 L 27.800781 35.898438 C 28.800781 35.398438 30 35.5 31.101563 35.898438 C 31.699219 36.101563 32 36.300781 32.601563 36.699219 C 32.898438 36.898438 33.199219 37.101563 33.601563 37.199219 C 34.101563 37.398438 34.398438 37.398438 34.800781 37.398438 C 35.601563 37.398438 36.300781 37.300781 37 37 C 37.300781 36.898438 37.5 36.800781 37.800781 36.699219 C 38 36.601563 38.199219 36.601563 38.398438 36.5 C 39.101563 36.398438 39.699219 36.601563 40.398438 36.898438 C 40.800781 37.101563 41.101563 37.199219 41.5 37.398438 C 42 37.601563 42.398438 37.699219 42.898438 37.800781 C 43.300781 37.898438 43.800781 37.800781 44.199219 37.699219 C 44.5 37.601563 44.699219 37.5 44.898438 37.5 Z M 4.199219 29.5 C 3.699219 29.601563 3.300781 29.800781 3 30 L 3 33.898438 C 3.601563 33.398438 4.199219 32.800781 4.300781 32.699219 C 4.5 32.601563 4.800781 32.398438 5.101563 32.199219 C 5.5 32 6 31.898438 6.601563 32 C 7.199219 32.101563 7.898438 32.398438 8.898438 32.898438 C 9.101563 33 9.398438 33.101563 9.601563 33.300781 L 9.800781 33.398438 L 10 33.5 L 10.101563 33.5 C 10.199219 33.5 10.398438 33.601563 10.601563 33.699219 C 11.300781 33.898438 12 34.101563 12.699219 34.101563 C 13.398438 34.101563 14.199219 34 15 33.601563 C 15.800781 33.199219 16.300781 32.699219 16.800781 32.300781 C 17.300781 31.898438 17.699219 31.601563 18.199219 31.398438 C 18.300781 31.398438 18.398438 31.300781 18.601563 31.300781 L 18.699219 31.300781 C 18.699219 31.300781 18.800781 31.300781 18.800781 31.300781 C 18.898438 31.300781 19 31.300781 19 31.300781 C 19.199219 31.300781 19.5 31.300781 19.699219 31.398438 C 20.199219 31.5 20.800781 31.800781 21.398438 32.101563 C 22 32.398438 22.601563 32.898438 23.398438 33.199219 C 24.199219 33.5 25.199219 33.5 26 33.101563 C 26.800781 32.699219 27.199219 32.199219 27.800781 31.898438 C 28.800781 31.300781 30.101563 31.300781 31.300781 31.601563 C 32.398438 31.898438 33.601563 32.699219 35 32.800781 C 35.699219 32.800781 36.300781 32.699219 36.898438 32.398438 C 37.5 32.101563 37.898438 31.898438 38.398438 31.800781 C 39.300781 31.5 40.300781 31.800781 41.101563 32 C 41.898438 32.300781 42.601563 32.601563 43.300781 32.699219 C 43.601563 32.699219 43.898438 32.699219 44.199219 32.601563 C 44.398438 32.5 44.601563 32.398438 44.800781 32.398438 C 45.101563 32.300781 45.300781 32.199219 45.300781 32.199219 C 45.300781 32.199219 45.101563 32.199219 44.800781 32.300781 C 44.5 32.300781 44 32.5 43.398438 32.398438 C 42.800781 32.398438 42.199219 32 41.398438 31.601563 C 40.601563 31.300781 39.601563 30.898438 38.398438 31.199219 C 37.800781 31.300781 37.300781 31.601563 36.800781 31.800781 C 36.300781 32 35.800781 32.101563 35.300781 32 C 34.800781 31.898438 34.199219 31.699219 33.699219 31.398438 C 33.199219 31.101563 32.5 30.800781 31.898438 30.601563 C 30.601563 30.199219 28.898438 30 27.5 30.699219 C 26.800781 31 26.199219 31.601563 25.800781 31.699219 C 25.300781 31.898438 24.800781 31.898438 24.300781 31.601563 C 23.300781 31.101563 22.199219 30 20.5 29.5 C 20.101563 29.398438 19.699219 29.300781 19.199219 29.300781 C 19.101563 29.300781 19 29.300781 18.898438 29.300781 C 18.800781 29.300781 18.898438 29.300781 18.699219 29.300781 L 18.5 29.300781 C 18.300781 29.300781 18.101563 29.398438 17.898438 29.398438 C 17.101563 29.699219 16.398438 30.101563 15.800781 30.5 C 15.199219 30.898438 14.800781 31.300781 14.398438 31.398438 C 14 31.601563 13.5 31.601563 13.101563 31.601563 C 12.601563 31.601563 12.199219 31.398438 11.800781 31.300781 C 11.699219 31.300781 11.601563 31.199219 11.5 31.199219 L 11.398438 31.199219 C 11.5 31.300781 11.398438 31.199219 11.5 31.199219 L 10.800781 31 C 10.601563 30.898438 10.300781 30.699219 10.101563 30.601563 C 9.300781 30.101563 8.199219 29.5 7.101563 29.300781 C 6 29 4.898438 29.199219 4.199219 29.5 Z "></path>
    </g>
</svg>