<svg version="1.1" id="Layer_1" xmlns="http://www.w3.org/2000/svg" x="0px" y="0px" viewBox="0 0 48 48"
     style="enable-background:new 0 0 48 48;" xml:space="preserve">
<g>
	<g>
		<g>
			<path style="fill:#6D4C41;" d="M23,37C11.038,37,3,32.981,3,27v-6c2-4,4.668-4.974,6.999-5c1.822-0.021,3.93,0.561,7.001,1
				c5.631,0.804,10.148-5,16-5c4,0,10,2,12,8v6C45,31.018,41.183,37,23,37z"></path>
		</g>
	</g>
</g>
    <g>
	<g>
		<g>

				<rect x="12.508" y="13.997" transform="matrix(0.7102 -0.704 0.704 0.7102 -12.5266 16.2775)"
                      style="fill:#4E342E;" width="2" height="18.714"></rect>
		</g>
        <g>

				<rect x="21.629" y="14.134" transform="matrix(0.7071 -0.7071 0.7071 0.7071 -9.9385 22.8627)"
                      style="fill:#4E342E;" width="2" height="18.588"></rect>
		</g>
        <g>

				<rect x="29.061" y="12.149" transform="matrix(0.6954 -0.7186 0.7186 0.6954 -6.4892 28.233)"
                      style="fill:#4E342E;" width="2" height="19.244"></rect>
		</g>
        <g>

				<rect x="34.833" y="9.712" transform="matrix(0.7071 -0.7071 0.7071 0.7071 -2.6799 30.7955)"
                      style="fill:#4E342E;" width="2" height="17.84"></rect>
		</g>
	</g>
</g>
    <g>
	<path style="fill:#8D6E63;" d="M23,31C11.038,31,3,26.981,3,21c0-4.145,3.516-6,7-6c1.694,0,2.976,0.3,4.107,0.565
		C15.103,15.799,15.962,16,17,16c3.301,0,5.483-1.184,7.793-2.438C27.113,12.302,29.512,11,33,11c7.29,0,12,3.533,12,9
		C45,25.018,41.183,31,23,31z M10,17c-0.835,0-5,0.193-5,4c0,4.71,7.402,8,18,8c9.124,0,20-1.562,20-9c0-4.318-3.832-7-10-7
		c-2.98,0-5.056,1.127-7.253,2.32C23.319,16.637,20.809,18,17,18c-1.27,0-2.327-0.248-3.349-0.487C12.575,17.261,11.463,17,10,17z"></path>
</g>
</svg>