<svg xmlns="http://www.w3.org/2000/svg" version="1.1" id="Layer_1" x="0px" y="0px" viewBox="0 0 48 48"
     style="enable-background:new 0 0 48 48;" xml:space="preserve">
<g id="surface1">
	<path style="fill:#388E3C;"
          d="M42.6,18.9c0,0-0.1-0.1-0.1-0.1c-0.5-0.6,0.2-0.1,0.4-0.4c0.2-0.3-0.5-0.9-0.7-1.1   c-0.4-0.3-0.8-0.5-1.3-0.6c0.2,0,0.6,0,0.6-0.2c0-0.2-0.6-0.5-0.8-0.6c-0.4-0.2-0.8-0.4-1.2-0.6c-0.4-0.1-0.7-0.1-1.1-0.1   c0.1-0.1,0.3-0.1,0.4-0.3c-0.4-0.6-2.2-0.3-2.7,0.1c0.2-0.2,0.3-0.5-0.1-0.5c-0.3,0-0.6,0.1-0.9,0.2c-4.2,1.3-7,4.2-7.9,5.2   c-0.9,1-1.3,1.9-1.3,1.9c1.2-1.2,2.7-2.3,4.3-3.1c1-0.5,2.8-1.2,3.9-0.5c0.3,0.2,0.5,0.4,0.8,0.4c0-0.1,0.1-0.2,0.1-0.3   c0.3,0.3,0,0.8,0.3,1.2c0.4,0.5,0.7,0.3,1.1,0c-0.1,0.4,0,1,0.3,1.4c0.3,0.4,0.8,0.4,0.9-0.1c0.1,0.5,0.7,2.3,1.5,1.5   c0.5-0.5,0.8-1.6,0.5-2.2c0.3,0.4,0.6,1.1,1,1.4c0.4,0.3,0.8,0.3,1.3,0.1c0.6-0.4,0.6-1,0.6-1.6c0-0.4,0.1-0.1,0.3-0.2   C43.2,19.6,42.8,19.1,42.6,18.9z"></path>
    <path style="fill:#388E3C;"
          d="M29.1,5.4C29.2,5.4,29.2,5.5,29.1,5.4c0.7,0.6,0.2-0.1,0.5-0.3c0.3-0.2,0.9,0.5,1.1,0.7   c0.3,0.4,0.5,0.8,0.6,1.3c0-0.2,0-0.6,0.2-0.6c0.2,0,0.5,0.6,0.6,0.8c0.2,0.4,0.4,0.8,0.6,1.2c0.1,0.4,0.1,0.7,0.1,1.1   c0.1-0.1,0.1-0.3,0.3-0.4c0.6,0.4,0.3,2.2-0.1,2.7c0.2-0.2,0.5-0.3,0.5,0.1c0,0.3-0.1,0.6-0.2,0.9c-1.3,4.2-4.2,7-5.2,7.9   c-1,0.9-1.9,1.3-1.9,1.3c1.2-1.2,2.3-2.7,3.1-4.3c0.5-1,1.2-2.8,0.5-3.9c-0.2-0.3-0.4-0.5-0.4-0.8c0.1,0,0.2-0.1,0.3-0.1   c-0.3-0.3-0.8,0-1.2-0.3c-0.5-0.4-0.3-0.7,0-1.1c-0.4,0.1-1,0-1.4-0.3c-0.4-0.3-0.4-0.8,0.1-0.9c-0.5-0.1-2.3-0.7-1.5-1.5   c0.5-0.5,1.6-0.8,2.2-0.5c-0.3-0.3-1.1-0.6-1.4-1c-0.3-0.4-0.3-0.8-0.1-1.3c0.4-0.6,1-0.6,1.6-0.6c0.4,0,0.1-0.1,0.2-0.3   C28.4,4.8,28.9,5.2,29.1,5.4z"></path>
    <path style="fill:#4CAF50;"
          d="M41.6,6.4c-0.8-0.8-1.6-0.3-2.3,0.4c0.2-0.3,0-0.6-0.4-0.7c-0.3-0.1-0.6,0.1-0.8,0.3   c-0.4,0.4-0.4,1.1-0.4,1.6c-0.3-0.7-1.1-0.4-1.4,0.2c-0.2,0.5-0.2,1.1-0.2,1.6c-0.3-0.3-0.7-0.3-1.1,0.1c-1,1.1-1.1,4.1-6.1,8.9   c-0.1,0.1,0.2,0.3,0.2,0.3c6.1-5.9,7.8-5,9.1-6c0.3-0.3,0-0.5-0.3-0.6c0.4,0,0.8-0.1,1.1-0.1c0.5-0.1,1-0.2,1.4-0.5   c0.2-0.2,0.4-0.6,0.3-0.9c-0.2-0.3-0.5-0.3-0.8-0.3c0.6-0.1,1.3-0.2,1.8-0.6C42,9.6,42.1,9.3,42.1,9c0-0.2-0.2-0.7-0.5-0.6   C42.1,7.9,42.1,6.9,41.6,6.4z"></path>
    <path style="fill:#FF9800;"
          d="M31,27.1c2-2,1.9-5.5-1.4-8.7C26.4,15.1,23,15,21,17C16.7,21.7,5.9,39.8,7.1,40.9   C8.1,41.9,24.7,32.4,31,27.1z"></path>
    <path style="fill:#EF6C00;"
          d="M19.9,28.4c0.2,0.2,0.4,0.3,0.7,0.3c0.3,0,0.5-0.1,0.7-0.3c0.4-0.4,0.4-1,0-1.4l-4.5-4.5   c-0.4,0.6-0.8,1.1-1.1,1.7L19.9,28.4z"></path>
    <path style="fill:#EF6C00;"
          d="M19.5,18.8l1.9,1.9c0.2,0.2,0.5,0.3,0.7,0.3c0.3,0,0.5-0.1,0.7-0.3c0.4-0.4,0.4-1,0-1.4l-2.1-2.1   C20.4,17.7,20,18.2,19.5,18.8z"></path>
    <path style="fill:#EF6C00;"
          d="M9.4,36.9c0.2,0.2,0.5,0.3,0.7,0.3c0.3,0,0.5-0.1,0.7-0.3c0.4-0.4,0.4-1,0-1.4l-1.2-1.2   c-0.4,0.7-0.7,1.3-1,1.9L9.4,36.9z"></path>
    <path style="fill:#EF6C00;"
          d="M26.9,25.3c-0.4-0.4-1-0.4-1.4,0s-0.4,1,0,1.4l2.6,2.6c0.6-0.4,1.1-0.8,1.6-1.2L26.9,25.3z"></path>
    <path style="fill:#EF6C00;"
          d="M17,35c-0.3,0-0.5-0.1-0.7-0.3l-3.1-3.1c-0.4-0.4-0.4-1,0-1.4s1-0.4,1.4,0l3.1,3.1   c0.4,0.4,0.4,1,0,1.4C17.5,34.9,17.3,35,17,35z"></path>
</g>
</svg>