<svg xmlns="http://www.w3.org/2000/svg" viewBox="0 0 48 48" version="1.1">
    <g id="surface1">
        <path style=" fill:#FFE57F;"
              d="M 38 21 C 38 18.828125 39.730469 17.074219 41.886719 17.011719 C 41.757813 12.785156 41.570313 9.089844 41.570313 9.089844 C 25.492188 10.414063 9.292969 13.699219 9.292969 13.699219 C 7.144531 14.125 6.710938 14.550781 6.28125 16.253906 C 6.28125 16.253906 5.421875 19.65625 6.710938 26.886719 C 8.003906 34.121094 12.75 37.101563 14.886719 37.101563 C 14.886719 37.101563 32.402344 38.75 41.570313 37.582031 C 41.570313 37.582031 41.933594 30.730469 41.992188 25 C 39.785156 24.992188 38 23.207031 38 21 Z "></path>
        <path style=" fill:#FFB300;"
              d="M 15.074219 35.152344 L 14.980469 35.144531 L 14.886719 35.144531 C 13.894531 35.144531 9.808594 32.996094 8.65625 26.546875 C 7.476563 19.933594 8.195313 16.738281 8.199219 16.722656 C 8.347656 16.128906 8.4375 15.980469 8.4375 15.96875 C 8.484375 15.9375 8.714844 15.804688 9.691406 15.613281 C 9.84375 15.582031 24.59375 12.609375 39.6875 11.214844 L 41.660156 11.058594 C 41.609375 9.847656 41.570313 9.089844 41.570313 9.089844 C 25.492188 10.414063 9.292969 13.699219 9.292969 13.699219 C 7.140625 14.125 6.710938 14.550781 6.28125 16.253906 C 6.28125 16.253906 5.421875 19.65625 6.710938 26.886719 C 8.003906 34.121094 12.75 37.101563 14.886719 37.101563 C 14.886719 37.101563 24.449219 38 33.136719 38 C 36.210938 38 39.175781 37.886719 41.570313 37.582031 C 41.570313 37.582031 41.609375 36.796875 41.667969 35.535156 C 39.269531 35.84375 35.265625 36.046875 33.140625 36.046875 C 24.644531 36.046875 15.171875 35.160156 15.074219 35.152344 Z "></path>
        <path style=" fill:#FFA000;"
              d="M 6.128906 17.195313 C 6.203125 16.566406 6.28125 16.253906 6.28125 16.253906 C 6.710938 14.550781 7.140625 14.125 9.292969 13.699219 C 9.292969 13.699219 25.492188 10.414063 41.570313 9.089844 C 41.570313 9.089844 28.113281 8.398438 25.1875 8.113281 C 22.265625 7.828125 19.710938 8.113281 18.269531 8.5625 C 16.828125 9.007813 12.132813 10.964844 12.132813 10.964844 C 5.675781 13.457031 6.128906 17.195313 6.128906 17.195313 Z "></path>
        <path style=" fill:#FFC400;"
              d="M 26 22 C 26 24.210938 24.210938 26 22 26 C 19.789063 26 18 24.210938 18 22 C 18 19.789063 19.789063 18 22 18 C 24.210938 18 26 19.789063 26 22 Z "></path>
        <path style=" fill:#FFC400;"
              d="M 35 16 C 35 17.105469 34.105469 18 33 18 C 31.894531 18 31 17.105469 31 16 C 31 14.894531 31.894531 14 33 14 C 34.105469 14 35 14.894531 35 16 Z "></path>
        <path style=" fill:#FFC400;"
              d="M 19 29.5 C 19 30.878906 17.878906 32 16.5 32 C 15.121094 32 14 30.878906 14 29.5 C 14 28.121094 15.121094 27 16.5 27 C 17.878906 27 19 28.121094 19 29.5 Z "></path>
        <path style=" fill:#FFC400;"
              d="M 14 21.5 C 14 22.328125 13.328125 23 12.5 23 C 11.671875 23 11 22.328125 11 21.5 C 11 20.671875 11.671875 20 12.5 20 C 13.328125 20 14 20.671875 14 21.5 Z "></path>
        <path style=" fill:#FFC400;"
              d="M 36 28 C 36 29.65625 34.65625 31 33 31 C 31.34375 31 30 29.65625 30 28 C 30 26.34375 31.34375 25 33 25 C 34.65625 25 36 26.34375 36 28 Z "></path>
    </g>
</svg>