<svg version="1.1" xmlns="http://www.w3.org/2000/svg" viewBox="0 0 172 172">
    <g fill="none" fill-rule="nonzero" stroke="none" stroke-width="1" stroke-linecap="butt" stroke-linejoin="miter"
       stroke-miterlimit="10" stroke-dasharray="" stroke-dashoffset="0" font-family="none" font-weight="none"
       font-size="none" text-anchor="none" style="mix-blend-mode: normal">
        <path d="M0,172v-172h172v172z" fill="none"></path>
        <g>
            <path d="M39.431,10.75h86v143.33333h-86z" fill="#fff176"></path>
            <path d="M60.931,17.91667l7.16667,-7.16667v28.66667l-7.16667,-7.16667zM89.59767,17.91667l7.16667,-7.16667v28.66667l-7.16667,-7.16667zM118.26433,17.91667l7.16667,-7.16667v28.66667l-7.16667,-7.16667zM60.931,46.58333l7.16667,-7.16667v28.66667l-7.16667,-7.16667zM89.59767,46.58333l7.16667,-7.16667v28.66667l-7.16667,-7.16667zM118.26433,46.58333l7.16667,-7.16667v28.66667l-7.16667,-7.16667zM60.931,75.25l7.16667,-7.16667v28.66667l-7.16667,-7.16667zM89.59767,75.25l7.16667,-7.16667v28.66667l-7.16667,-7.16667zM118.26433,75.25l7.16667,-7.16667v28.66667l-7.16667,-7.16667z"
                  fill="#ffd54f"></path>
            <path d="M60.931,103.91667l7.16667,-7.16667v28.66667l-7.16667,-7.16667zM89.59767,103.91667l7.16667,-7.16667v28.66667l-7.16667,-7.16667zM118.26433,103.91667l7.16667,-7.16667v28.66667l-7.16667,-7.16667zM60.931,132.58333l7.16667,-7.16667v28.66667l-7.16667,-7.16667zM89.59767,132.58333l7.16667,-7.16667v28.66667l-7.16667,-7.16667zM118.26433,132.58333l7.16667,-7.16667v28.66667l-7.16667,-7.16667z"
                  fill="#6d4c41"></path>
            <path d="M75.26433,17.91667h14.33333v14.33333h-14.33333zM103.931,17.91667h14.33333v14.33333h-14.33333zM46.59767,17.91667h14.33333v14.33333h-14.33333zM75.26433,46.58333h14.33333v14.33333h-14.33333zM103.931,46.58333h14.33333v14.33333h-14.33333zM46.59767,46.58333h14.33333v14.33333h-14.33333zM75.26433,75.25h14.33333v14.33333h-14.33333zM103.931,75.25h14.33333v14.33333h-14.33333zM46.59767,75.25h14.33333v14.33333h-14.33333z"
                  fill="#fff9c4"></path>
            <path d="M75.26433,103.91667h14.33333v14.33333h-14.33333zM103.931,103.91667h14.33333v14.33333h-14.33333zM46.59767,103.91667h14.33333v14.33333h-14.33333zM75.26433,132.58333h14.33333v14.33333h-14.33333zM103.931,132.58333h14.33333v14.33333h-14.33333zM46.59767,132.58333h14.33333v14.33333h-14.33333z"
                  fill="#a1887f"></path>
            <path d="M39.431,39.41667l7.16667,-7.16667h14.33333l7.16667,7.16667zM68.09767,39.41667l7.16667,-7.16667h14.33333l7.16667,7.16667zM96.76433,39.41667l7.16667,-7.16667h14.33333l7.16667,7.16667zM39.431,68.08333l7.16667,-7.16667h14.33333l7.16667,7.16667zM68.09767,68.08333l7.16667,-7.16667h14.33333l7.16667,7.16667zM96.76433,68.08333l7.16667,-7.16667h14.33333l7.16667,7.16667z"
                  fill="#ffca28"></path>
            <path d="M39.431,96.75l7.16667,-7.16667h14.33333l7.16667,7.16667zM68.09767,96.75l7.16667,-7.16667h14.33333l7.16667,7.16667zM96.76433,96.75l7.16667,-7.16667h14.33333l7.16667,7.16667zM39.431,125.41667l7.16667,-7.16667h14.33333l7.16667,7.16667zM68.09767,125.41667l7.16667,-7.16667h14.33333l7.16667,7.16667zM96.76433,125.41667l7.16667,-7.16667h14.33333l7.16667,7.16667zM39.431,154.08333l7.16667,-7.16667h14.33333l7.16667,7.16667zM68.09767,154.08333l7.16667,-7.16667h14.33333l7.16667,7.16667zM96.76433,154.08333l7.16667,-7.16667h14.33333l7.16667,7.16667z"
                  fill="#4e342e"></path>
            <path d="M125.431,161.25h-86c-3.95958,0 -7.16667,-3.20708 -7.16667,-7.16667v-75.25l100.33333,17.91667v57.33333c0,3.94883 -3.22142,7.16667 -7.16667,7.16667z"
                  fill="#ff3d00"></path>
            <path d="M39.431,154.08333v-73.86325l-7.16667,-1.38675v75.25c0,3.95958 3.20708,7.16667 7.16667,7.16667h86c3.94883,0 7.16667,-3.21783 7.16667,-7.16667v-28.66667h-7.16667v28.66667z"
                  fill="#dd2c00"></path>
            <path d="M132.59767,129v-28.66667l-100.33333,-21.5v7.16667l82.41667,60.91667z" fill="#dd2c00"></path>
            <path d="M32.26433,78.83333l100.33333,10.75l7.138,14.33333l-17.91667,17.91667z" fill="#ffd740"></path>
            <path d="M32.26433,78.83333l89.55467,43l-17.888,-28.66667z" fill="#ffe57f"></path>
        </g>
    </g>
</svg>