<svg xmlns="http://www.w3.org/2000/svg" viewBox="0 0 48 48" version="1.1">
    <g id="surface1">
        <path style=" fill:#8D6E63;" d="M 12 3 L 36 3 L 36 43 L 12 43 Z "></path>
        <path style=" fill:#6D4C41;" d="M 18 5 L 20 3 L 20 11 L 18 9 Z "></path>
        <path style=" fill:#6D4C41;" d="M 26 5 L 28 3 L 28 11 L 26 9 Z "></path>
        <path style=" fill:#6D4C41;" d="M 34 5 L 36 3 L 36 11 L 34 9 Z "></path>
        <path style=" fill:#6D4C41;" d="M 18 13 L 20 11 L 20 19 L 18 17 Z "></path>
        <path style=" fill:#6D4C41;" d="M 26 13 L 28 11 L 28 19 L 26 17 Z "></path>
        <path style=" fill:#6D4C41;" d="M 34 13 L 36 11 L 36 19 L 34 17 Z "></path>
        <path style=" fill:#6D4C41;" d="M 18 21 L 20 19 L 20 27 L 18 25 Z "></path>
        <path style=" fill:#6D4C41;" d="M 26 21 L 28 19 L 28 27 L 26 25 Z "></path>
        <path style=" fill:#6D4C41;" d="M 34 21 L 36 19 L 36 27 L 34 25 Z "></path>
        <path style=" fill:#6D4C41;" d="M 18 29 L 20 27 L 20 35 L 18 33 Z "></path>
        <path style=" fill:#6D4C41;" d="M 26 29 L 28 27 L 28 35 L 26 33 Z "></path>
        <path style=" fill:#6D4C41;" d="M 34 29 L 36 27 L 36 35 L 34 33 Z "></path>
        <path style=" fill:#6D4C41;" d="M 18 37 L 20 35 L 20 43 L 18 41 Z "></path>
        <path style=" fill:#6D4C41;" d="M 26 37 L 28 35 L 28 43 L 26 41 Z "></path>
        <path style=" fill:#6D4C41;" d="M 34 37 L 36 35 L 36 43 L 34 41 Z "></path>
        <path style=" fill:#A1887F;" d="M 22 5 L 26 5 L 26 9 L 22 9 Z "></path>
        <path style=" fill:#A1887F;" d="M 30 5 L 34 5 L 34 9 L 30 9 Z "></path>
        <path style=" fill:#A1887F;" d="M 14 5 L 18 5 L 18 9 L 14 9 Z "></path>
        <path style=" fill:#A1887F;" d="M 22 13 L 26 13 L 26 17 L 22 17 Z "></path>
        <path style=" fill:#A1887F;" d="M 30 13 L 34 13 L 34 17 L 30 17 Z "></path>
        <path style=" fill:#A1887F;" d="M 14 13 L 18 13 L 18 17 L 14 17 Z "></path>
        <path style=" fill:#A1887F;" d="M 22 21 L 26 21 L 26 25 L 22 25 Z "></path>
        <path style=" fill:#A1887F;" d="M 30 21 L 34 21 L 34 25 L 30 25 Z "></path>
        <path style=" fill:#A1887F;" d="M 14 21 L 18 21 L 18 25 L 14 25 Z "></path>
        <path style=" fill:#A1887F;" d="M 22 29 L 26 29 L 26 33 L 22 33 Z "></path>
        <path style=" fill:#A1887F;" d="M 30 29 L 34 29 L 34 33 L 30 33 Z "></path>
        <path style=" fill:#A1887F;" d="M 14 29 L 18 29 L 18 33 L 14 33 Z "></path>
        <path style=" fill:#A1887F;" d="M 22 37 L 26 37 L 26 41 L 22 41 Z "></path>
        <path style=" fill:#A1887F;" d="M 30 37 L 34 37 L 34 41 L 30 41 Z "></path>
        <path style=" fill:#A1887F;" d="M 14 37 L 18 37 L 18 41 L 14 41 Z "></path>
        <path style=" fill:#4E342E;" d="M 12 11 L 14 9 L 18 9 L 20 11 Z "></path>
        <path style=" fill:#4E342E;" d="M 20 11 L 22 9 L 26 9 L 28 11 Z "></path>
        <path style=" fill:#4E342E;" d="M 28 11 L 30 9 L 34 9 L 36 11 Z "></path>
        <path style=" fill:#4E342E;" d="M 12 19 L 14 17 L 18 17 L 20 19 Z "></path>
        <path style=" fill:#4E342E;" d="M 20 19 L 22 17 L 26 17 L 28 19 Z "></path>
        <path style=" fill:#4E342E;" d="M 28 19 L 30 17 L 34 17 L 36 19 Z "></path>
        <path style=" fill:#4E342E;" d="M 12 27 L 14 25 L 18 25 L 20 27 Z "></path>
        <path style=" fill:#4E342E;" d="M 20 27 L 22 25 L 26 25 L 28 27 Z "></path>
        <path style=" fill:#4E342E;" d="M 28 27 L 30 25 L 34 25 L 36 27 Z "></path>
        <path style=" fill:#4E342E;" d="M 12 35 L 14 33 L 18 33 L 20 35 Z "></path>
        <path style=" fill:#4E342E;" d="M 20 35 L 22 33 L 26 33 L 28 35 Z "></path>
        <path style=" fill:#4E342E;" d="M 28 35 L 30 33 L 34 33 L 36 35 Z "></path>
        <path style=" fill:#4E342E;" d="M 12 43 L 14 41 L 18 41 L 20 43 Z "></path>
        <path style=" fill:#4E342E;" d="M 20 43 L 22 41 L 26 41 L 28 43 Z "></path>
        <path style=" fill:#4E342E;" d="M 28 43 L 30 41 L 34 41 L 36 43 Z "></path>
        <path style=" fill:#FF3D00;"
              d="M 36 45 L 12 45 C 10.894531 45 10 44.105469 10 43 L 10 22 L 38 27 L 38 43 C 38 44.101563 37.101563 45 36 45 Z "></path>
        <path style=" fill:#DD2C00;"
              d="M 12 43 L 12 22.386719 L 10 22 L 10 43 C 10 44.105469 10.894531 45 12 45 L 36 45 C 37.101563 45 38 44.101563 38 43 L 38 35 L 36 35 L 36 43 Z "></path>
        <path style=" fill:#DD2C00;" d="M 38 36 L 38 28 L 10 22 L 10 24 L 33 41 Z "></path>
        <path style=" fill:#FFD740;" d="M 10 22 L 38 25 L 39.992188 29 L 34.992188 34 Z "></path>
        <path style=" fill:#FFE57F;" d="M 10 22 L 34.992188 34 L 30 26 Z "></path>
    </g>
</svg>