<svg xmlns="http://www.w3.org/2000/svg" version="1.1" id="Layer_1" x="0px" y="0px" viewBox="0 0 48 48"
     style="enable-background:new 0 0 48 48;" xml:space="preserve">
<path style="fill:#FFB300;"
      d="M41.5,23c-1.299,0-2.461-0.559-3.282-1.439C36.868,22.466,35.248,23,33.5,23  c-4.694,0-8.5-3.806-8.5-8.5c0-1.748,0.529-3.372,1.434-4.723C25.556,8.956,25,7.797,25,6.5c0-0.89,0.267-1.715,0.713-2.414  C25.147,4.038,24.578,4,24,4C12.954,4,4,12.954,4,24c0,11.046,8.954,20,20,20s20-8.954,20-20c0-0.579-0.033-1.149-0.082-1.716  C43.219,22.732,42.392,23,41.5,23z"></path>
    <circle style="fill:#FFB300;" cx="34.5" cy="12.5" r="1.5"></circle>
    <circle style="fill:#FFB300;" cx="42.5" cy="15.5" r="1.5"></circle>
    <circle style="fill:#FFB300;" cx="36" cy="6" r="2"></circle>
    <circle style="fill:#683529;" cx="13" cy="22" r="3"></circle>
    <circle style="fill:#683529;" cx="28" cy="35" r="3"></circle>
    <circle style="fill:#683529;" cx="16.5" cy="33.5" r="2.5"></circle>
    <circle style="fill:#683529;" cx="22.5" cy="24.5" r="1.5"></circle>
    <circle style="fill:#683529;" cx="34.5" cy="27.5" r="1.5"></circle>
    <circle style="fill:#683529;" cx="18.5" cy="13.5" r="1.5"></circle>
</svg>