<svg version="1.1" xmlns="http://www.w3.org/2000/svg" viewBox="0 0 172 172">
    <g fill="none" fill-rule="nonzero" stroke="none" stroke-width="1" stroke-linecap="butt" stroke-linejoin="miter"
       stroke-miterlimit="10" stroke-dasharray="" stroke-dashoffset="0" font-family="none" font-weight="none"
       font-size="none" text-anchor="none" style="mix-blend-mode: normal">
        <path d="M0,172v-172h172v172z" fill="none"></path>
        <g>
            <path d="M96.75,57.33333c-32.25,0 -57.33333,25.08333 -57.33333,25.08333l-10.75,7.17742l10.75,7.697c14.4265,10.28417 32.3145,24.54225 57.33333,24.54225c25.08333,0 60.91667,-25.08333 60.91667,-35.83333c0,-10.75 -35.83333,-28.66667 -60.91667,-28.66667z"
                  fill="#00bcd4"></path>
            <path d="M113.133,59.383c-3.61558,8.05533 -5.633,17.21075 -5.633,26.617c0,11.52758 3.30383,22.65025 8.6,32.01708c18.44342,-6.37475 41.56667,-21.8655 41.56667,-32.01708c0,-10.15158 -25.08333,-22.45317 -44.53367,-26.617z"
                  fill="#4dd0e1"></path>
            <path d="M125.41667,71.66667c-3.95804,0 -7.16667,3.20863 -7.16667,7.16667c0,3.95804 3.20863,7.16667 7.16667,7.16667c3.95804,0 7.16667,-3.20863 7.16667,-7.16667c0,-3.95804 -3.20863,-7.16667 -7.16667,-7.16667z"
                  fill="#ffffff"></path>
            <path d="M125.41667,75.25c-1.97902,0 -3.58333,1.60431 -3.58333,3.58333c0,1.97902 1.60431,3.58333 3.58333,3.58333c1.97902,0 3.58333,-1.60431 3.58333,-3.58333c0,-1.97902 -1.60431,-3.58333 -3.58333,-3.58333z"
                  fill="#0277bd"></path>
            <path d="M96.75,57.33333c5.14567,0 10.73925,0.76325 16.383,2.04967c-0.32967,-1.75942 -2.74842,-13.63458 -9.21633,-19.96633c-8.73617,0.44792 -41.03275,12.3625 -50.16667,21.5c2.09267,3.139 3.52242,5.60433 4.57233,7.611c10.08708,-5.79067 23.46367,-11.19433 38.42767,-11.19433zM14.33333,60.91667c3.58333,3.58333 7.16667,20.33183 7.16667,28.66667c0,8.28825 -3.58333,25.08333 -7.16667,28.66667c10.75,-3.58333 22.21667,-15.29367 24.97225,-21.03775c0.03583,0.02867 0.07525,0.05733 0.11108,0.07883l-7.16667,-7.697l7.16667,-7.17742c0,0 -7.16667,-14.33333 -25.08333,-21.5zM104.66558,132.44717c-14.76692,0.56258 -17.415,-0.61275 -22.80792,-1.66267c3.38267,-6.52525 23.12325,-24.86117 26.73167,-22.99783l-0.31892,1.68775c3.60483,1.86692 -0.22575,16.44392 -3.60483,22.97275z"
                  fill="#006064"></path>
            <path d="M107.5,86c0,-9.40625 2.01742,-18.56167 5.633,-26.617c-2.623,-0.67725 -7.04125,-1.27925 -7.04125,-1.27925c-3.78042,8.90458 -5.75842,18.26783 -5.75842,27.89625c0,11.8465 2.91683,23.68583 8.56417,34.12408c2.31483,-0.64142 4.945,-1.18967 7.20608,-2.11058c-5.29975,-9.36325 -8.60358,-20.48592 -8.60358,-32.0135z"
                  fill="#0097a7"></path>
        </g>
    </g>
</svg>