<svg xmlns="http://www.w3.org/2000/svg" viewBox="0 0 48 48" version="1.1">
    <g id="surface1">
        <path style=" fill:#4FC3F7;"
              d="M 22 40 C 22 41.105469 21.105469 42 20 42 L 28 42 C 26.894531 42 26 41.105469 26 40 C 26 38.894531 26.894531 38 28 38 L 20 38 C 21.105469 38 22 38.894531 22 40 Z "></path>
        <path style=" fill:#E91E63;"
              d="M 32 12 C 32 16.417969 28.417969 20 24 20 C 19.582031 20 16 16.417969 16 12 C 16 7.582031 19.582031 4 24 4 C 28.417969 4 32 7.582031 32 12 Z "></path>
        <path style=" fill:#FFE0B2;"
              d="M 40 20 C 40 24.417969 36.417969 28 32 28 C 27.582031 28 24 24.417969 24 20 C 24 15.582031 27.582031 12 32 12 C 36.417969 12 40 15.582031 40 20 Z "></path>
        <path style=" fill:#FF80AB;"
              d="M 24 20 C 24 24.417969 20.417969 28 16 28 C 11.582031 28 8 24.417969 8 20 C 8 15.582031 11.582031 12 16 12 C 20.417969 12 24 15.582031 24 20 Z "></path>
        <path style=" fill:#43A047;"
              d="M 28 26.242188 C 28 26.242188 26.929688 16.167969 16 19.78125 C 17.179688 30.265625 28 26.242188 28 26.242188 Z "></path>
        <path style=" fill:#8BC34A;"
              d="M 35 22.472656 C 35 22.472656 34.285156 28.769531 27 26.511719 C 27.785156 19.960938 35 22.472656 35 22.472656 Z "></path>
        <path style=" fill:#B3E5FC;"
              d="M 37 26 C 37 33.179688 31.179688 39 24 39 C 16.820313 39 11 33.179688 11 26 Z "></path>
        <path style=" fill:#81D4FA;"
              d="M 31 44 C 30.507813 42.304688 27.566406 41 24 41 C 20.433594 41 17.492188 42.304688 17 44 Z "></path>
    </g>
</svg>