<svg xmlns="http://www.w3.org/2000/svg" version="1.1" id="Layer_1" x="0px" y="0px" viewBox="0 0 48 48"
     style="enable-background:new 0 0 48 48;" xml:space="preserve">
<g id="surface1">
	<path style="fill:#FFECB3;" d="M16,11h13v5H16V11z"></path>
    <path style="fill:#64B5F6;" d="M24,41.2L22,40.8l9-38C31.1,2.3,31.5,2,32,2h9v2h-8.2L24,41.2z"></path>
    <path style="fill:#FFECB3;" d="M32,12c0,2.2-1.8,4-4,4s-4-1.8-4-4s1.8-4,4-4S32,9.8,32,12z"></path>
    <path style="fill:#FFECB3;" d="M22,12c0,2.2-1.8,4-4,4s-4-1.8-4-4s1.8-4,4-4S22,9.8,22,12z"></path>
    <path style="fill:#FFECB3;" d="M25,7.5c0,1.9-1.6,3.5-3.5,3.5S18,9.4,18,7.5S19.6,4,21.5,4S25,5.6,25,7.5z"></path>
    <path style="fill:#FFECB3;" d="M25,4c0,1.1-0.9,2-2,2s-2-0.9-2-2s0.9-2,2-2S25,2.9,25,4z"></path>
    <path style="fill:#FFECB3;" d="M28,7.5c0,1.9-1.6,3.5-3.5,3.5S21,9.4,21,7.5S22.6,4,24.5,4S28,5.6,28,7.5z"></path>
    <path style="fill:#FFD54F;"
          d="M18,8c0,0,0.1-0.1,0.3-0.2c0.1-0.1,0.2-0.2,0.3-0.3c0.1-0.1,0.2-0.2,0.3-0.3   c0.1-0.1,0.2-0.3,0.4-0.4c0.1-0.2,0.3-0.3,0.4-0.5c0.3-0.3,0.6-0.7,1-1.1C21,5,21.2,4.8,21.4,4.7c0.2-0.2,0.5-0.3,0.7-0.5   c0.3-0.1,0.5-0.3,0.7-0.3c0.2-0.1,0.5-0.1,0.7-0.2c0.2,0,0.4,0,0.6,0c0.2,0,0.3,0.1,0.5,0.1C24.9,3.9,25,4,25,4s-0.1,0.1-0.3,0.2   c-0.2,0.1-0.5,0.3-0.7,0.6c-0.5,0.5-1.1,1.1-1.8,1.8c-0.4,0.3-0.8,0.7-1.2,1c-0.4,0.3-0.9,0.5-1.4,0.6c-0.4,0.1-0.9,0.1-1.1,0   C18.1,8.1,18,8,18,8z"></path>
    <path style="fill:#FFD54F;"
          d="M14.1,17c0,0,0.3-0.1,0.7-0.3c0.2-0.1,0.5-0.2,0.7-0.4c0.3-0.1,0.5-0.4,0.8-0.6   c0.3-0.2,0.6-0.5,0.9-0.8c0.3-0.3,0.7-0.6,1-0.9c0.7-0.7,1.4-1.4,2.2-2.1c0.8-0.7,1.6-1.4,2.4-2c0.8-0.6,1.6-1.2,2.4-1.5   C25.6,8.3,26,8.2,26.3,8C26.7,8,27,7.9,27.2,7.9C27.7,7.9,28,8,28,8s-0.3,0.1-0.7,0.3c-0.2,0.1-0.4,0.3-0.7,0.4   c-0.2,0.2-0.5,0.4-0.8,0.7c-0.3,0.3-0.6,0.5-0.9,0.9c-0.3,0.3-0.6,0.7-1,1c-0.3,0.3-0.7,0.7-1,1.1c-0.4,0.4-0.7,0.7-1.1,1.1   c-0.4,0.4-0.8,0.7-1.2,1.1c-0.4,0.3-0.8,0.6-1.3,0.9c-0.4,0.3-0.9,0.5-1.3,0.8c-0.4,0.2-0.8,0.4-1.3,0.5c-0.4,0.1-0.8,0.3-1.1,0.3   c-0.4,0-0.7,0.1-0.9,0C14.4,17.1,14.1,17,14.1,17z"></path>
    <path style="fill:#BBDEFB;" d="M14.9,46c0,0,3.1-3,8.1-3s8.1,3,8.1,3H14.9z"></path>
    <path style="fill:#BBDEFB;" d="M12,12c0,23.9,7.1,26,10,31h2c3.1-4.8,10-7.1,10-31H12z"></path>
    <path style="fill:#FF80AB;"
          d="M21.5,39c0.8,0.9,2.3,0.9,3.1,0c0,0,0,0,0,0c3-3.4,7.1-8.1,7.4-25l0-2H14l0,2   c0.3,16.6,4.3,21.3,7.3,24.8C21.4,38.9,21.4,38.9,21.5,39z"></path>
    <path style="fill:#FFCDD2;" d="M19,14h-3c0.3,15.9,4,20.3,6.8,23.5l0.2,0.3v0h0C20.8,34.3,19.3,28,19,14z"></path>
    <path style="fill:#FFD54F;" d="M14,14c0,1,0.1,2,0.1,3h17.8c0-1,0.1-2,0.1-3l0-2H14L14,14z"></path>
    <path style="fill:#FFFFFF;" d="M19,14v-2h-3l0,2c0,1.1,0.1,2,0.1,3h3C19,16,19,15,19,14z"></path>
</g>
</svg>