<svg xmlns="http://www.w3.org/2000/svg" viewBox="0 0 48 48" version="1.1">
    <g id="surface1">
        <path style=" fill:#A1887F;"
              d="M 37.703125 14.230469 C 36.449219 12.980469 29.785156 15.730469 22.851563 22.652344 C 15.914063 29.570313 12.726563 36.660156 13.976563 37.90625 C 16.347656 38.402344 21.167969 35.253906 28.105469 28.332031 C 35.042969 21.40625 38.242188 16.210938 37.703125 14.230469 Z "></path>
        <path style=" fill:#FFD54F;"
              d="M 40.164063 28.136719 C 43.851563 31.816406 43.800781 36.554688 40.839844 39.507813 C 37.878906 42.460938 32.464844 43.183594 28.773438 39.503906 C 25.089844 35.824219 21.609375 28.339844 21.609375 28.339844 C 19.554688 25.242188 21.441406 24.492188 22.777344 23.15625 C 24.121094 21.816406 23.894531 22.039063 23.894531 22.039063 C 25.234375 20.59375 25.941406 19.203125 28.980469 20.984375 C 28.980469 20.984375 36.480469 24.457031 40.164063 28.136719 Z "></path>
        <path style=" fill:#BCAAA4;"
              d="M 15.121094 37.929688 C 15.488281 36.53125 18.410156 32.546875 25.6875 25.28125 C 32.101563 18.882813 36.109375 15.777344 37.75 15.191406 C 37.804688 14.828125 37.800781 14.515625 37.730469 14.261719 C 37.652344 14.183594 37.550781 14.117188 37.433594 14.074219 C 37.421875 14.070313 37.40625 14.066406 37.394531 14.066406 C 37.035156 13.9375 36.511719 13.9375 35.847656 14.078125 C 32.832031 15.050781 28.804688 18.074219 23.636719 23.230469 C 17.550781 29.300781 14.300781 33.808594 13.753906 36.921875 C 13.753906 36.921875 13.753906 36.925781 13.753906 36.925781 C 13.746094 37.109375 13.757813 37.269531 13.78125 37.414063 C 13.789063 37.464844 13.796875 37.511719 13.808594 37.554688 C 13.820313 37.605469 13.835938 37.648438 13.855469 37.6875 C 13.894531 37.785156 13.941406 37.871094 14.003906 37.9375 C 14.332031 38.003906 14.707031 37.996094 15.121094 37.929688 Z "></path>
        <path style=" fill:#5D4037;"
              d="M 13.75 12.613281 L 13.054688 13.308594 C 6.863281 19.480469 3.765625 31.371094 11.957031 36.933594 C 13.222656 37.679688 13.976563 37.90625 13.976563 37.90625 C 12.726563 36.660156 16.789063 30.066406 23.722656 23.144531 C 30.660156 16.222656 36.449219 12.980469 37.703125 14.230469 C 37.703125 14.230469 37.773438 13.476563 36.921875 12.148438 C 30.652344 4.105469 19.9375 6.4375 13.75 12.613281 Z "></path>
        <path style=" fill:#FFB300;"
              d="M 42.160156 30.894531 C 42.136719 30.910156 42.109375 30.910156 42.085938 30.9375 C 41.871094 31.144531 41.808594 31.53125 41.730469 31.796875 C 41.628906 32.148438 41.601563 32.410156 41.589844 32.765625 C 41.585938 32.957031 41.519531 33.300781 41.273438 33.339844 C 41.023438 33.378906 40.589844 33.023438 40.40625 32.902344 C 40.121094 32.707031 39.894531 32.460938 39.648438 32.214844 C 39.386719 31.953125 38.808594 31.296875 38.363281 31.40625 C 37.570313 31.601563 37.796875 33.230469 37.96875 33.757813 C 38.214844 34.515625 38.230469 36.164063 37.21875 36.351563 C 36.589844 36.46875 35.984375 36.125 35.414063 35.890625 C 34.773438 35.628906 34.246094 35.15625 33.597656 34.925781 C 33.238281 34.796875 32.644531 34.726563 32.347656 35.015625 C 31.980469 35.367188 32.003906 35.992188 32.171875 36.414063 C 32.503906 37.25 33.164063 37.949219 33.792969 38.578125 C 34.183594 38.964844 34.804688 39.585938 34.851563 40.171875 C 34.917969 41.054688 33.535156 40.941406 33.003906 41.011719 C 32.621094 41.0625 31.96875 41.058594 31.71875 41.414063 C 31.714844 41.421875 31.714844 41.425781 31.710938 41.429688 C 34.949219 42.695313 38.597656 41.742188 40.835938 39.507813 C 43.097656 37.253906 43.65625 33.960938 42.160156 30.894531 Z "></path>
    </g>
</svg>