<svg xmlns="http://www.w3.org/2000/svg" viewBox="0 0 48 48" version="1.1">
    <g id="surface1">
        <path style=" fill:#FFA000;"
              d="M 18.398438 5.300781 C 18.699219 5.101563 19.300781 5 20.101563 5 C 26 5.101563 44.101563 11.199219 44.101563 15 C 44.101563 19.300781 32.101563 32 28.101563 32 C 24.101563 32 16.199219 7.300781 18.398438 5.300781 Z "></path>
        <path style=" fill:#F57F17;"
              d="M 32 20.300781 C 32 23.199219 31 27.398438 29.5 31.601563 C 28.898438 31.800781 28.5 32 28 32 C 27.601563 32 27 31.699219 26.5 31.101563 C 27.898438 27.101563 29 23.101563 28.898438 20.398438 C 28.898438 18.800781 28.699219 17.699219 27.898438 17.398438 C 27.300781 17.199219 26.5 17 25.5 17 C 25.398438 17 25.300781 17 25.199219 17 C 23.800781 17 22 17.199219 20.199219 17.5 C 19.898438 16.5 19.601563 15.5 19.300781 14.601563 C 21.398438 14.300781 23.398438 14 25.199219 14 C 25.300781 14 25.398438 14 25.5 14 C 27 14 28.101563 14.199219 29 14.601563 C 31.898438 15.800781 32 19.101563 32 20.300781 Z M 36.101563 18.5 C 36.101563 19.300781 36.800781 20 37.601563 20 C 38.398438 20 39.101563 19.300781 39.101563 18.5 C 39.101563 17.699219 38.398438 17 37.601563 17 C 36.800781 17 36.101563 17.699219 36.101563 18.5 Z M 30.101563 11 C 30.101563 11.5 30.5 12 31.101563 12 C 31.601563 12 32.101563 11.601563 32.101563 11 C 32.101563 10.398438 31.699219 10 31.101563 10 C 30.5 10 30.101563 10.5 30.101563 11 Z M 20.898438 8.699219 C 20.898438 9.199219 21.300781 9.699219 21.898438 9.699219 C 22.398438 9.699219 22.898438 9.300781 22.898438 8.699219 C 22.898438 8.101563 22.5 7.699219 21.898438 7.699219 C 21.300781 7.699219 20.898438 8.199219 20.898438 8.699219 Z M 37.101563 14 C 37.101563 14.5 37.5 15 38.101563 15 C 38.699219 15 39.101563 14.601563 39.101563 14 C 39.101563 13.398438 38.699219 13 38.101563 13 C 37.5 13 37.101563 13.5 37.101563 14 Z M 33 24 C 33 24.5 33.398438 25 34 25 C 34.5 25 35 24.601563 35 24 C 35 23.5 34.601563 23 34 23 C 33.5 23 33 23.5 33 24 Z "></path>
        <path style=" fill:#FFC107;"
              d="M 4 22 C 4.898438 19.699219 19.101563 15.898438 25.601563 16 C 26.601563 16 27.398438 16.101563 28 16.398438 C 28.800781 16.699219 29 17.800781 29 19.398438 C 29.101563 26.5 22.898438 43 20 43 C 16.5 43 2.898438 24.699219 4 22 Z "></path>
        <path style=" fill:#F9A825;"
              d="M 24 20 C 24.601563 20 25 20.398438 25 21 C 25 21.601563 24.601563 22 24 22 C 23.398438 22 23 21.601563 23 21 C 23 20.398438 23.398438 20 24 20 Z M 15 20 C 15 20.601563 15.398438 21 16 21 C 16.601563 21 17 20.601563 17 20 C 17 19.398438 16.601563 19 16 19 C 15.398438 19 15 19.398438 15 20 Z M 11 26 C 11 26.601563 11.398438 27 12 27 C 12.601563 27 13 26.601563 13 26 C 13 25.398438 12.601563 25 12 25 C 11.398438 25 11 25.398438 11 26 Z M 22 26.5 C 22 27.300781 22.699219 28 23.5 28 C 24.300781 28 25 27.300781 25 26.5 C 25 25.699219 24.300781 25 23.5 25 C 22.699219 25 22 25.699219 22 26.5 Z M 12.898438 31.5 C 12.898438 32.300781 13.601563 33 14.398438 33 C 15.199219 33 15.898438 32.300781 15.898438 31.5 C 15.898438 30.699219 15.199219 30 14.398438 30 C 13.601563 30 12.898438 30.699219 12.898438 31.5 Z M 20 32 C 20 32.5 20.398438 33 21 33 C 21.5 33 22 32.601563 22 32 C 22 31.5 21.601563 31 21 31 C 20.5 31 20 31.5 20 32 Z M 19 38 C 19 38.5 19.398438 39 20 39 C 20.5 39 21 38.601563 21 38 C 21 37.5 20.601563 37 20 37 C 19.5 37 19 37.5 19 38 Z M 17 25.5 C 17 25.800781 17.199219 26 17.5 26 C 17.800781 26 18 25.800781 18 25.5 C 18 25.199219 17.800781 25 17.5 25 C 17.199219 25 17 25.199219 17 25.5 Z "></path>
    </g>
</svg>