<svg xmlns="http://www.w3.org/2000/svg" viewBox="0 0 48 48" version="1.1">
    <g id="surface1">
        <path style=" fill:#D88A19;"
              d="M 34.742188 11.492188 L 36.15625 12.90625 L 7.398438 41.664063 L 5.984375 40.25 Z "></path>
        <path style=" fill:#F9A825;"
              d="M 40.066406 12.484375 C 37.460938 15.09375 34.515625 14.101563 34.027344 13.777344 C 33.535156 13.285156 32.710938 10.34375 35.15625 7.734375 C 37.273438 5.617188 42.011719 5.628906 42.011719 5.628906 C 42.011719 5.628906 42.023438 10.363281 40.066406 12.484375 Z "></path>
        <path style=" fill:#F9A825;"
              d="M 21.765625 28.425781 C 24.703125 28.269531 28.136719 29.417969 29.609375 30.402344 C 28.46875 32.359375 26.511719 33.824219 23.570313 34.308594 C 19.65625 34.949219 17.851563 32.171875 17.683594 31.515625 C 17.519531 30.863281 17.679688 28.738281 21.765625 28.425781 Z M 23.550781 25.648438 C 23.714844 26.304688 25.519531 28.921875 29.4375 28.277344 C 32.378906 27.796875 34.335938 26.167969 35.472656 24.210938 C 33.671875 22.898438 30.40625 22.074219 27.628906 22.558594 C 24.851563 23.039063 23.386719 24.996094 23.550781 25.648438 Z M 32.679688 16.6875 C 29.902344 17.660156 29.378906 18.90625 29.546875 19.394531 C 30.003906 20.726563 32.363281 22.570313 35.792969 21.757813 C 38.566406 21.113281 40.519531 18.175781 40.683594 16.21875 C 40.84375 16.054688 36.429688 15.394531 32.679688 16.6875 Z "></path>
        <path style=" fill:#F9A825;"
              d="M 16.050781 30.042969 C 15.394531 29.878906 12.777344 28.074219 13.257813 24.15625 C 13.738281 21.21875 15.207031 19.261719 17.164063 18.121094 C 18.144531 19.429688 19.300781 22.863281 19.140625 25.96875 C 18.824219 30.050781 16.703125 30.207031 16.050781 30.042969 Z M 25.171875 20.101563 C 25.65625 17.324219 24.828125 14.058594 23.519531 12.257813 C 21.5625 13.394531 20.097656 15.1875 19.449219 18.128906 C 18.804688 22.046875 21.425781 23.851563 22.078125 24.015625 C 22.730469 24.34375 24.6875 22.878906 25.171875 20.101563 Z M 31.835938 6.886719 C 29.878906 7.046875 26.941406 8.835938 26.132813 11.773438 C 25.160156 15.199219 27.046875 17.730469 27.960938 18.230469 C 28.453125 18.394531 30.066406 17.988281 31.203125 15.214844 C 32.5 11.296875 31.835938 6.886719 31.835938 6.886719 Z "></path>
        <path style=" fill:#F9A825;"
              d="M 15.699219 34.484375 C 18.640625 34.328125 22.070313 35.480469 23.546875 36.464844 C 22.40625 38.421875 20.449219 39.886719 17.507813 40.371094 C 13.59375 41.011719 11.785156 38.234375 11.621094 37.578125 C 11.457031 36.925781 11.617188 34.804688 15.699219 34.484375 Z "></path>
        <path style=" fill:#F9A825;"
              d="M 9.984375 36.105469 C 9.332031 35.941406 6.714844 34.136719 7.195313 30.21875 C 7.675781 27.277344 9.144531 25.320313 11.101563 24.183594 C 12.082031 25.492188 13.238281 28.925781 13.078125 32.027344 C 12.761719 36.113281 10.640625 36.269531 9.984375 36.105469 Z "></path>
    </g>
</svg>