<svg xmlns="http://www.w3.org/2000/svg" version="1.1" id="Layer_1" x="0px" y="0px" viewBox="0 0 48 48"
     style="enable-background:new 0 0 48 48;" xml:space="preserve">
<path style="fill:#FFAB00;"
      d="M25.9,9C36.4,9,43,18.1,43,26c0,9.4-8.5,17-19,17S5,35.4,5,26c0-9.4,6.6-17,17.1-17H25.9z"></path>
    <g>
	<path style="fill:#FB8C00;"
          d="M22.9,12c0,0-0.1,0-0.2,0c-0.1,0-0.2,0-0.4,0c-0.4,0-1,0-1.7,0.1c-0.4,0-0.8,0.1-1.2,0.2   c-0.4,0.1-0.8,0.2-1.3,0.4c-0.4,0.1-0.9,0.4-1.3,0.6c-0.4,0.2-0.9,0.5-1.3,0.8c-0.4,0.3-0.8,0.6-1.2,0.9c-0.4,0.3-0.8,0.6-1.1,1   c-0.3,0.4-0.7,0.7-1,1c-0.3,0.4-0.5,0.7-0.8,1c-0.5,0.6-0.8,1.2-1.1,1.6C10.1,19.8,10,20,10,20s0.1-0.2,0.3-0.6   c0.2-0.4,0.4-1,0.9-1.7c0.2-0.3,0.4-0.7,0.7-1.1c0.3-0.4,0.6-0.8,0.9-1.2c0.3-0.4,0.7-0.8,1-1.2c0.4-0.4,0.8-0.7,1.2-1.1   c0.4-0.3,0.9-0.7,1.3-1c0.5-0.3,0.9-0.6,1.4-0.8c0.5-0.2,0.9-0.4,1.4-0.6c0.4-0.2,0.9-0.3,1.3-0.4c0.8-0.2,1.5-0.3,2-0.3   c0.3,0,0.5,0,0.6,0c0.1,0,0.2,0,0.2,0c0.6,0,1,0.5,1,1s-0.5,1-1,1C23,12,23,12,22.9,12L22.9,12z"></path>
</g>
    <g>
	<path style="fill:#FB8C00;"
          d="M23.9,10c0,0,0.1,0,0.2,0c0.1,0,0.3,0,0.6,0c0.5,0,1.1,0.1,1.8,0.2c0.4,0.1,0.8,0.2,1.2,0.3   c0.4,0.2,0.8,0.3,1.2,0.5c0.4,0.2,0.8,0.5,1.2,0.7c0.4,0.3,0.8,0.6,1.1,0.9c0.3,0.3,0.7,0.7,1,1c0.3,0.4,0.6,0.7,0.8,1.1   c0.2,0.4,0.5,0.7,0.7,1.1c0.2,0.4,0.3,0.7,0.5,1c0.3,0.6,0.5,1.2,0.6,1.5C34.9,18.8,35,19,35,19s-0.1-0.2-0.3-0.6   c-0.2-0.3-0.4-0.9-0.8-1.4c-0.2-0.3-0.4-0.6-0.6-0.9c-0.2-0.3-0.5-0.6-0.8-0.9c-0.3-0.3-0.6-0.6-0.9-0.9c-0.3-0.3-0.7-0.5-1-0.8   c-0.4-0.2-0.7-0.5-1.1-0.7c-0.4-0.2-0.8-0.4-1.1-0.5c-0.4-0.1-0.8-0.2-1.1-0.3c-0.4-0.1-0.7-0.1-1-0.1c-0.6-0.1-1.1,0-1.5,0   c-0.2,0-0.3,0-0.4,0.1c-0.1,0-0.1,0-0.1,0l0,0c-0.5,0.1-1.1-0.2-1.2-0.8c-0.1-0.5,0.2-1.1,0.8-1.2C23.8,10,23.8,10,23.9,10z"></path>
</g>
    <g>
	<path style="fill:#FB8C00;"
          d="M24.5,11.8c0,0,0,0-0.1,0.1c-0.1,0-0.2,0.1-0.3,0.2c-0.3,0.2-0.6,0.4-1.1,0.8   c-0.4,0.4-0.9,0.8-1.4,1.4c-0.5,0.5-0.9,1.2-1.4,1.8c-0.4,0.7-0.8,1.4-1.1,2c-0.3,0.7-0.5,1.3-0.7,1.9c-0.2,0.6-0.3,1.1-0.4,1.4   C18.1,21.8,18,22,18,22s0-0.2,0.1-0.6c0-0.4,0.1-0.9,0.2-1.5c0.1-0.6,0.2-1.3,0.4-2c0.2-0.7,0.5-1.5,0.8-2.3   c0.3-0.8,0.7-1.5,1.1-2.2c0.4-0.7,0.9-1.3,1.3-1.8c0.4-0.5,0.8-0.9,1.1-1.1c0.2-0.1,0.3-0.2,0.4-0.3c0.1-0.1,0.1-0.1,0.1-0.1   c0.4-0.3,1.1-0.3,1.4,0.2c0.3,0.4,0.3,1.1-0.2,1.4C24.6,11.8,24.6,11.8,24.5,11.8L24.5,11.8z"></path>
</g>
    <rect x="23" y="5" style="fill:#5D4037;" width="2" height="6"></rect>
    <circle style="fill:#F57C00;" cx="36" cy="28" r="1"></circle>
    <circle style="fill:#F57C00;" cx="38" cy="31" r="1"></circle>
    <circle style="fill:#F57C00;" cx="40" cy="28" r="1"></circle>
    <circle style="fill:#F57C00;" cx="30" cy="31" r="1"></circle>
    <circle style="fill:#F57C00;" cx="32" cy="34" r="1"></circle>
    <circle style="fill:#F57C00;" cx="34" cy="31" r="1"></circle>
    <circle style="fill:#F57C00;" cx="34" cy="37" r="1"></circle>
    <circle style="fill:#F57C00;" cx="26" cy="37" r="1"></circle>
    <circle style="fill:#F57C00;" cx="28" cy="40" r="1"></circle>
    <circle style="fill:#F57C00;" cx="30" cy="37" r="1"></circle>
    <circle style="fill:#F57C00;" cx="24" cy="40" r="1"></circle>
    <circle style="fill:#F57C00;" cx="28" cy="34" r="1"></circle>
    <circle style="fill:#F57C00;" cx="36" cy="34" r="1"></circle>
    <circle style="fill:#F57C00;" cx="30" cy="25" r="1"></circle>
    <circle style="fill:#F57C00;" cx="32" cy="28" r="1"></circle>
    <circle style="fill:#F57C00;" cx="34" cy="25" r="1"></circle>
    <circle style="fill:#F57C00;" cx="36" cy="22" r="1"></circle>
    <circle style="fill:#F57C00;" cx="38" cy="25" r="1"></circle>
    <circle style="fill:#F57C00;" cx="40" cy="22" r="1"></circle>
    <circle style="fill:#F57C00;" cx="38" cy="19" r="1"></circle>
    <circle style="fill:#F57C00;" cx="32" cy="22" r="1"></circle>
    <circle style="fill:#F57C00;" cx="22" cy="37" r="1"></circle>
    <circle style="fill:#F57C00;" cx="24" cy="34" r="1"></circle>
    <circle style="fill:#F57C00;" cx="18" cy="37" r="1"></circle>
    <circle style="fill:#F57C00;" cx="20" cy="34" r="1"></circle>
    <circle style="fill:#F57C00;" cx="20" cy="40" r="1"></circle>
    <circle style="fill:#F57C00;" cx="14" cy="37" r="1"></circle>
    <circle style="fill:#F57C00;" cx="34" cy="19" r="1"></circle>
    <path style="fill:#4CAF50;"
          d="M23,11c0,0,4.7-5.9,12-6c2.7,0,5.7,0.9,9,3c-4.9,5.1-9.4,6.1-13,6C26.1,13.8,23,11,23,11z"></path>
    <g>
	<path style="fill:#2E7D32;"
          d="M23,11c0,0,0.3-0.2,0.7-0.6c0.2-0.2,0.5-0.4,0.9-0.6c0.4-0.2,0.8-0.4,1.3-0.7   C26.8,8.7,28,8.3,29.2,8c0.6-0.2,1.3-0.3,1.9-0.4c0.7-0.1,1.3-0.2,2-0.3c0.7-0.1,1.4-0.1,2-0.2c0.7,0,1.3,0,2,0   c1.3,0,2.5,0.1,3.5,0.3C42.7,7.6,44,8,44,8s-1.4,0.2-3.4,0.4c-1,0.1-2.2,0.2-3.4,0.4c-1.2,0.1-2.5,0.3-3.8,0.4   c-0.7,0.1-1.3,0.2-1.9,0.2c-0.6,0.1-1.3,0.2-1.9,0.3C29,9.8,28.4,9.9,27.8,10c-0.5,0.1-1.1,0.2-1.6,0.3c-0.5,0.1-0.9,0.2-1.3,0.3   c-0.4,0.1-0.7,0.2-1,0.3C23.3,10.9,23,11,23,11z"></path>
</g>
</svg>