<svg xmlns="http://www.w3.org/2000/svg" viewBox="0 0 48 48" version="1.1">
    <g id="surface1">
        <path style=" fill:#FBC02D;"
              d="M 36.671875 7.203125 C 36.152344 7.167969 35.710938 7.253906 35.480469 7.289063 C 34.199219 7.359375 29.5625 8.023438 23.847656 13.570313 C 22.769531 14.308594 19.230469 16.992188 18.878906 20.46875 L 18.859375 20.652344 C 18.773438 21.574219 18.597656 23.484375 17.308594 24.046875 C 14.753906 25.152344 12.363281 26.566406 11.867188 26.917969 C 9.039063 28.675781 4.699219 32.953125 6.371094 37.855469 C 7.269531 40.488281 9.355469 42 12.09375 42 C 13.898438 42 15.546875 41.339844 16.40625 40.925781 C 18.246094 40.546875 26.59375 38.4375 28.453125 31.367188 C 28.570313 31.128906 28.703125 30.777344 28.867188 30.34375 C 29.453125 28.78125 30.4375 26.167969 32.371094 24.519531 C 32.550781 24.363281 33.078125 23.90625 33.78125 23.289063 C 35.210938 22.042969 37.375 20.152344 38.929688 18.820313 L 39.003906 18.75 C 39.308594 18.453125 41.753906 15.757813 41.953125 11.949219 C 42.472656 2.296875 38.359375 7.320313 36.671875 7.203125 Z "></path>
        <path style=" fill:#D84315;"
              d="M 13.300781 29.003906 C 13.300781 29.003906 7.3125 32.667969 8.808594 37.0625 C 10.308594 41.460938 15.550781 38.53125 15.550781 38.53125 C 15.550781 38.53125 24.539063 37.0625 26.03125 30.46875 C 26.03125 30.46875 27.40625 28.082031 26.90625 26.808594 C 26.652344 26.160156 25.128906 26.546875 24.328125 26.144531 C 23.308594 25.632813 21.726563 25.476563 19.292969 26.074219 C 16.296875 26.808594 13.300781 29.003906 13.300781 29.003906 Z "></path>
        <path style=" fill:#D84315;"
              d="M 24.4375 16.171875 C 24.4375 16.171875 18.015625 20.453125 21.585938 24.019531 C 25.152344 27.589844 28.722656 24.019531 29.4375 23.308594 C 30.148438 22.59375 35.859375 17.597656 35.859375 17.597656 C 35.859375 17.597656 38 15.457031 38 12.601563 C 38 9.746094 34.433594 10.460938 34.433594 10.460938 C 34.433594 10.460938 30.148438 10.460938 24.4375 16.171875 Z "></path>
        <path style=" fill:#A52E0E;"
              d="M 26.9375 26.96875 C 24.8125 29.558594 19.410156 34.832031 9.023438 37.558594 C 10.742188 41.203125 15.546875 38.53125 15.546875 38.53125 C 15.546875 38.53125 24.535156 37.0625 26.03125 30.46875 C 26.03125 30.46875 27.285156 28.273438 26.9375 26.96875 Z "></path>
        <path style=" fill:#A52E0E;"
              d="M 37.417969 11.042969 C 37.410156 11.066406 37.398438 11.074219 37.394531 11.101563 C 35.746094 13.964844 31.34375 19.949219 21.765625 24.171875 C 21.765625 24.175781 21.765625 24.175781 21.765625 24.175781 C 25.273438 27.457031 28.734375 24.007813 29.4375 23.308594 C 30.148438 22.59375 35.859375 17.597656 35.859375 17.597656 C 35.859375 17.597656 38 15.457031 38 12.601563 C 38 11.871094 37.765625 11.378906 37.417969 11.042969 Z "></path>
    </g>
</svg>