<svg version="1.1" xmlns="http://www.w3.org/2000/svg" viewBox="0 0 172 172">
    <g fill="none" fill-rule="nonzero" stroke="none" stroke-width="1" stroke-linecap="butt" stroke-linejoin="miter"
       stroke-miterlimit="10" stroke-dasharray="" stroke-dashoffset="0" font-family="none" font-weight="none"
       font-size="none" text-anchor="none" style="mix-blend-mode: normal">
        <path d="M0,172v-172h172v172z" fill="none"></path>
        <g>
            <path d="M71.66667,21.5l-50.16667,129l129,-50.16667z" fill="#ffd54f"></path>
            <path d="M53.75358,114.66667c-9.89358,0 -17.92025,8.0195 -17.92025,17.91308c0,4.11008 1.4405,7.85467 3.77325,10.879l31.906,-12.40908c-0.78833,-9.16258 -8.39217,-16.383 -17.759,-16.383zM73.46192,50.16667c-8.90559,0 -16.125,7.21941 -16.125,16.125c0,8.90559 7.21941,16.125 16.125,16.125c8.90559,0 16.125,-7.21941 16.125,-16.125c0,-8.90559 -7.21941,-16.125 -16.125,-16.125z"
                  fill="#ff3d00"></path>
            <path d="M100.33333,71.66667c-5.93042,0 -10.75,4.81958 -10.75,10.75717c0,5.92683 4.81958,10.74283 10.75,10.74283c5.93042,0 10.75,-4.816 10.75,-10.74283c0,-5.93758 -4.81958,-10.75717 -10.75,-10.75717zM100.33333,87.79167c-2.97058,0 -5.375,-2.40442 -5.375,-5.375c0,-2.97058 2.40442,-5.375 5.375,-5.375c2.97058,0 5.375,2.40442 5.375,5.375c0,2.97058 -2.40442,5.375 -5.375,5.375zM57.33333,89.58333c-5.93042,0 -10.75,4.81958 -10.75,10.75717c0,5.92683 4.81958,10.74283 10.75,10.74283c5.93042,0 10.75,-4.816 10.75,-10.74283c0,-5.93758 -4.81958,-10.75717 -10.75,-10.75717zM57.33333,105.70833c-2.97058,0 -5.375,-2.40442 -5.375,-5.375c0,-2.97058 2.40442,-5.375 5.375,-5.375c2.97058,0 5.375,2.40442 5.375,5.375c0,2.97058 -2.40442,5.375 -5.375,5.375z"
                  fill="#3e2723"></path>
            <path d="M107.04133,116.53717c-1.39033,-3.70517 -5.52192,-5.58642 -9.22708,-4.1925c-3.70517,1.39033 -22.36,11.81067 -20.97325,15.51583c0.12183,0.32967 0.44792,0.57333 0.85283,0.78475l29.50875,-11.47742c-0.05375,-0.20783 -0.08242,-0.42283 -0.16125,-0.63067z"
                  fill="#8d6e63"></path>
            <path d="M90.26058,122.8295c-1.7415,-5.44667 -1.10008,-10.36658 -1.10008,-10.36658c0.11825,-0.15408 0.12183,-0.33683 0.1075,-0.52317c0.17558,-0.68083 0.21142,-1.40467 -0.05733,-2.11775c-0.69517,-1.85617 -2.76275,-2.79142 -4.61175,-2.09625c-0.473,0.17917 -0.88508,0.44792 -1.2255,0.77758c-6.34608,3.999 -9.2665,12.0615 -6.52883,19.35717c0.12183,0.32967 0.30458,0.61633 0.44792,0.93525l13.27625,-5.16c-0.09675,-0.26875 -0.215,-0.52317 -0.30817,-0.80625z"
                  fill="#8d6e63"></path>
            <g fill="#689f38">
                <path d="M93.16667,102.46542c0,0 -1.92067,-19.24967 -21.5,-12.33742c2.11058,20.02725 21.5,12.33742 21.5,12.33742zM120.38208,89.58333c0,0 -19.25325,1.91708 -12.33742,21.5c20.02725,-2.11417 12.33742,-21.5 12.33742,-21.5z"></path>
            </g>
            <path d="M149.99117,97.42367c-3.32175,-7.80808 -11.02592,-30.60525 -27.89983,-47.47558c-16.41525,-16.426 -38.13025,-25.456 -47.76942,-28.07183c-3.00642,-0.80983 -3.67292,-0.97467 -4.85183,2.01742c-0.96033,2.42233 -3.69083,10.70342 -5.03817,14.58058c-0.22933,0.65933 -0.35475,1.19683 -0.43358,1.68417c31.15708,12.00775 55.93583,36.81517 67.90775,67.99375c0.08958,-0.0215 0.16842,-0.00358 0.26517,-0.03583c2.49042,-0.79192 12.43775,-4.26417 15.07867,-5.14567c2.64092,-0.89583 4.07783,-2.41158 2.74125,-5.547z"
                  fill="#ff9800"></path>
        </g>
    </g>
</svg>