<svg version="1.1" xmlns="http://www.w3.org/2000/svg" viewBox="0 0 172 172">
    <g fill="none" fill-rule="nonzero" stroke="none" stroke-width="1" stroke-linecap="butt" stroke-linejoin="miter"
       stroke-miterlimit="10" stroke-dasharray="" stroke-dashoffset="0" font-family="none" font-weight="none"
       font-size="none" text-anchor="none" style="mix-blend-mode: normal">
        <path d="M0,172v-172h172v172z" fill="none"></path>
        <g>
            <path d="M139.24833,75.75167c-1.333,-4.42542 -5.38933,-7.66833 -10.24833,-7.66833c-0.06092,0 -0.11825,0.01792 -0.17917,0.01792c-0.86717,-6.07733 -6.04508,-10.76792 -12.3625,-10.76792c-3.86283,0 -7.27417,1.7845 -9.57467,4.52933c-1.46917,-0.602 -3.07092,-0.946 -4.75867,-0.946c-1.21475,0 -2.36858,0.22933 -3.47942,0.55183c-2.39725,-4.56875 -7.13083,-7.7185 -12.64558,-7.7185c-5.36783,0 -9.99392,2.9885 -12.4485,7.35658c-0.61275,-0.1075 -1.23983,-0.18992 -1.88483,-0.18992c-0.87075,0 -1.70925,0.13258 -2.51908,0.32967c-1.97083,-2.37217 -4.90558,-3.913 -8.23092,-3.913c-2.24317,0 -4.3215,0.688 -6.04508,1.86333c-1.89917,-1.161 -4.1065,-1.86333 -6.49658,-1.86333c-6.92658,0 -12.54167,5.61508 -12.54167,12.54167c0,0.67008 0.09675,1.3115 0.19708,1.95292c-6.16333,0.79192 -10.94708,5.9985 -10.94708,12.38042c0,6.92658 5.61508,12.54167 12.54167,12.54167c0.61275,0 1.20042,-0.09675 1.79167,-0.17917v0.17917h93.16667v-0.65933c1.12517,0.40133 2.31842,0.65933 3.58333,0.65933c5.93758,0 10.75,-4.81242 10.75,-10.75c0,-4.859 -3.24292,-8.91533 -7.66833,-10.24833z"
                  fill="#ffd600"></path>
            <path d="M17.91667,86h136.16667c0,0 -0.24008,57.33333 -68.08333,57.33333c-67.84325,0 -68.08333,-57.33333 -68.08333,-57.33333z"
                  fill="#5d4037"></path>
            <path d="M60.91667,139.75h50.16667v10.75h-50.16667z" fill="#3e2723"></path>
            <path d="M148.72267,25.0475l-3.827,-2.74842c-1.91708,-1.376 -4.58308,-0.93167 -5.95192,0.989l-28.02167,41.33017c1.86333,1.87408 3.16767,4.30358 3.56542,7.04842h4.47917l30.74142,-40.68517c1.36167,-1.9135 0.92092,-4.56517 -0.98542,-5.934z"
                  fill="#2196f3"></path>
            <path d="M53.75,71.66667c0,1.978 -1.60533,3.58333 -3.58333,3.58333c-1.978,0 -3.58333,-1.60533 -3.58333,-3.58333c0,-1.978 1.60533,-3.58333 3.58333,-3.58333c1.978,0 3.58333,1.60533 3.58333,3.58333zM75.25,64.5c-1.978,0 -3.58333,1.60533 -3.58333,3.58333c0,1.978 1.60533,3.58333 3.58333,3.58333c1.978,0 3.58333,-1.60533 3.58333,-3.58333c0,-1.978 -1.60533,-3.58333 -3.58333,-3.58333zM64.5,75.25c-1.978,0 -3.58333,1.60533 -3.58333,3.58333c0,1.978 1.60533,3.58333 3.58333,3.58333c1.978,0 3.58333,-1.60533 3.58333,-3.58333c0,-1.978 -1.60533,-3.58333 -3.58333,-3.58333zM103.91667,71.66667c-1.978,0 -3.58333,1.60533 -3.58333,3.58333c0,1.978 1.60533,3.58333 3.58333,3.58333c1.978,0 3.58333,-1.60533 3.58333,-3.58333c0,-1.978 -1.60533,-3.58333 -3.58333,-3.58333zM114.66667,78.83333c-1.978,0 -3.58333,1.60533 -3.58333,3.58333c0,1.978 1.60533,3.58333 3.58333,3.58333c1.978,0 3.58333,-1.60533 3.58333,-3.58333c0,-1.978 -1.60533,-3.58333 -3.58333,-3.58333z"
                  fill="#ffab00"></path>
        </g>
    </g>
</svg>