<svg xmlns="http://www.w3.org/2000/svg" viewBox="0 0 48 48" version="1.1">
    <g id="surface1">
        <path style=" fill:#FB8D03;"
              d="M 44 21 C 44 13.820313 35.046875 6 24 6 C 12.953125 6 4 13.820313 4 21 C 4 22.214844 4 26.785156 4 28 C 4 35.179688 12.953125 42 24 42 C 35.046875 42 44 35.179688 44 28 C 44 26.785156 44 24.5 44 24.5 C 44 24.5 44 22.214844 44 21 Z "></path>
        <path style=" fill:#FFB74D;"
              d="M 24 34 C 7.800781 34 4 23 4 23 C 4 24.214844 4 24 4 24 C 4 24 5.664063 37 24 37 C 42.335938 37 44 24 44 24 C 44 24 44 24.214844 44 23 C 44 23 40.199219 34 24 34 Z "></path>
        <path style=" fill:#FFE0B3;"
              d="M 37 16 C 37 11.03125 31.179688 7 24 7 C 16.820313 7 11 11.03125 11 16 C 11 20.96875 16.820313 25 24 25 C 31.179688 25 37 20.96875 37 16 Z "></path>
        <path style=" fill:#E53935;"
              d="M 28 11 C 28 13.210938 26.210938 15 24 15 C 21.789063 15 20 13.210938 20 11 C 20 8.789063 24 4.332031 24 4.332031 C 24 4.332031 28 8.789063 28 11 Z "></path>
        <path style=" fill:#FF8A80;"
              d="M 23 13 C 21.894531 13 21 12.105469 21 11 C 21 9.894531 23 7.667969 23 7.667969 C 23 7.667969 24.105469 13 23 13 Z "></path>
    </g>
</svg>