<svg version="1.1" xmlns="http://www.w3.org/2000/svg" viewBox="0 0 172 172">
    <g fill="none" fill-rule="nonzero" stroke="none" stroke-width="1" stroke-linecap="butt" stroke-linejoin="miter"
       stroke-miterlimit="10" stroke-dasharray="" stroke-dashoffset="0" font-family="none" font-weight="none"
       font-size="none" text-anchor="none" style="mix-blend-mode: normal">
        <path d="M0,172v-172h172v172z" fill="none"></path>
        <g>
            <path d="M154.08333,50.88333h-42.28333v-6.45h42.28333v-6.45h-42.28333v-6.45h42.28333v-6.80833l-48.01667,-3.225l-12.9,10.75v17.91667l12.9,10.75l48.01667,-3.225zM14.33333,139.75c0,0 7.16667,14.33333 35.83333,14.33333c14.33333,0 43,0 71.66667,0c28.66667,0 35.83333,-14.33333 35.83333,-14.33333h-143.33333"
                  fill="#2196f3"></path>
            <path d="M132.58333,139.75v-20.425c-9.675,-8.24167 -23.65,-13.61667 -39.41667,-15.05c-2.50833,-0.35833 -4.65833,-0.35833 -7.16667,-0.35833c-30.1,0 -55.18333,15.40833 -59.84167,35.83333zM139.75,139.75v-118.25c0,-2.15 -1.43333,-3.58333 -3.58333,-3.58333c-2.15,0 -3.58333,1.43333 -3.58333,3.58333v118.25z"
                  fill="#ffe082"></path>
            <path d="M93.16667,50.16667l0.71667,-17.91667h-73.1c-3.58333,0 -6.45,2.86667 -6.45,6.45v5.01667c0,3.58333 2.86667,6.45 6.45,6.45z"
                  fill="#3f51b5"></path>
            <path d="M118.25,96.75c-10.39167,0 -14.33333,-8.6 -14.33333,-14.33333c0,-4.3 2.86667,-10.75 10.75,-10.75c2.15,0 3.58333,1.43333 3.58333,3.58333c0,2.15 -1.43333,3.58333 -3.58333,3.58333c-2.86667,0 -3.58333,2.15 -3.58333,3.58333c0,1.79167 0.71667,7.16667 7.16667,7.16667c6.80833,0 7.16667,-6.09167 7.16667,-7.16667v-60.91667c0,-2.15 1.43333,-3.58333 3.58333,-3.58333c2.15,0 3.58333,1.43333 3.58333,3.58333v60.91667c0,5.73333 -3.94167,14.33333 -14.33333,14.33333zM33.325,139.75c2.86667,-9.675 11.46667,-17.55833 23.29167,-22.93333c-8.6,6.09167 -14.33333,13.975 -16.48333,22.93333h7.16667c2.86667,-9.675 11.46667,-17.55833 23.29167,-22.93333c-8.6,6.09167 -14.33333,13.975 -16.48333,22.93333h7.16667c2.86667,-9.675 11.46667,-17.55833 23.29167,-22.93333c-8.6,6.09167 -14.33333,13.975 -16.48333,22.93333h7.16667c2.86667,-9.675 11.46667,-17.55833 23.29167,-22.93333c-8.6,6.09167 -14.33333,13.975 -16.48333,22.93333h7.16667c2.86667,-9.675 11.46667,-17.55833 23.29167,-22.93333c-8.6,6.09167 -14.33333,13.975 -16.48333,22.93333h7.16667c2.50833,-7.525 8.24167,-14.33333 16.84167,-19.35c0.35833,0.35833 1.075,0.71667 1.43333,1.075c-5.73333,5.375 -9.675,11.825 -11.46667,18.63333h7.16667c1.79167,-5.375 5.01667,-10.03333 9.675,-14.33333c1.43333,1.075 2.50833,2.50833 3.58333,3.58333v-9.675c-9.675,-8.24167 -23.65,-13.975 -39.41667,-15.05c-0.35833,-0.71667 -2.50833,-0.71667 -5.01667,-0.71667c-30.1,0 -55.18333,15.40833 -59.84167,35.83333zM146.91667,139.75v-118.25c0,-2.15 -1.43333,-3.58333 -3.58333,-3.58333c-2.15,0 -3.58333,1.43333 -3.58333,3.58333v118.25z"
                  fill="#ffb300"></path>
            <path d="M132.58333,139.75v-118.25c0,-2.15 -1.43333,-3.58333 -3.58333,-3.58333c-2.15,0 -3.58333,1.43333 -3.58333,3.58333v118.25z"
                  fill="#ffb300"></path>
        </g>
    </g>
</svg>