<svg version="1.1" xmlns="http://www.w3.org/2000/svg" viewBox="0 0 172 172">
    <g fill="none" fill-rule="nonzero" stroke="none" stroke-width="1" stroke-linecap="butt" stroke-linejoin="miter"
       stroke-miterlimit="10" stroke-dasharray="" stroke-dashoffset="0" font-family="none" font-weight="none"
       font-size="none" text-anchor="none" style="mix-blend-mode: normal">
        <path d="M0,172v-172h172v172z" fill="none"></path>
        <g>
            <path d="M157.66667,63.50742c0,-31.25742 -25.08333,-27.67408 -39.41667,-34.84075c-14.33333,-7.16667 -14.33333,-14.33333 -34.0345,-14.33333c-8.17,0 -15.84192,3.90942 -21.38175,9.91508c-2.07833,2.2575 -3.73025,4.4505 -5.02383,6.58617c-6.23858,10.31283 -14.50533,19.41808 -24.62825,25.95767c-11.34125,7.32792 -18.84833,20.07025 -18.84833,34.58275c0,17.29675 10.66758,32.07442 25.7785,38.16967c8.24883,3.32892 15.29008,8.89025 21.42475,15.3295c7.5035,7.88333 18.09583,12.7925 29.83842,12.7925c30.45833,0 32.81258,-14.05025 44.79167,-28.66667c10.53858,-12.86058 21.5,-12.54167 21.5,-35.83333z"
                  fill="#e0e0e0"></path>
            <circle cx="29" cy="23" transform="scale(3.58333,3.58333)" r="8" fill="#ffa000"></circle>
            <path d="M89.58333,75.25c-0.76325,0 -1.53008,-0.24008 -2.17867,-0.74175c-1.5695,-1.204 -1.86692,-3.45433 -0.65933,-5.02383c4.11367,-5.36425 10.535,-8.56775 17.17133,-8.56775c3.68725,0 6.25292,0.95675 8.56417,1.93142c1.82033,0.77042 2.67675,2.87383 1.90275,4.69775c-0.77042,1.82033 -2.87383,2.67317 -4.69775,1.90275c-1.8275,-0.774 -3.41492,-1.36525 -5.76917,-1.36525c-4.42183,0 -8.71825,2.15717 -11.49175,5.76558c-0.70592,0.91733 -1.77017,1.40108 -2.84158,1.40108z"
                  fill="#ffffff"></path>
        </g>
    </g>
</svg>