<svg xmlns="http://www.w3.org/2000/svg" version="1.1" id="Layer_1" x="0px" y="0px" viewBox="0 0 48 48"
     style="enable-background:new 0 0 48 48;" xml:space="preserve">
<g id="surface1">
	<path style="fill:#6D4C41;" d="M8,25h17v10H8V25z"></path>
    <path style="fill:#6D4C41;" d="M25,34.5c0-3-3.8-5.5-8.5-5.5S8,31.5,8,34.5s3.8,5.5,8.5,5.5S25,37.5,25,34.5z"></path>
    <path style="fill:#6D4C41;" d="M25,25.5c0-3-3.8-5.5-8.5-5.5S8,22.5,8,25.5s3.8,5.5,8.5,5.5S25,28.5,25,25.5z"></path>
    <path style="fill:#ECEFF1;"
          d="M23.1,25.5c0-1.9-3-3.5-6.6-3.5s-6.6,1.6-6.6,3.5s3,3.5,6.6,3.5S23.1,27.4,23.1,25.5z"></path>
    <path style="fill:#FF6E40;"
          d="M20,25.5c0-0.8-1.6-1.5-3.6-1.5s-3.6,0.7-3.6,1.5s1.6,1.5,3.6,1.5S20,26.3,20,25.5z"></path>
    <path style="fill:#FFCC80;" d="M21.7,21.1L40.5,9.9l-1-1.7L19.2,20.3C20.1,20.5,21,20.8,21.7,21.1z"></path>
    <path style="fill:#FFCC80;" d="M8,27l-3.5,2.1l1,1.7L8,29.4V27z"></path>

    <rect x="3.2" y="27.5" transform="matrix(0.9129 -0.4081 0.4081 0.9129 -9.5419 12.2768)" style="fill:#FFCC80;"
          width="41.6" height="2"></rect>
    <path style="fill:#FFCC80;" d="M42.6,19.1l0.8,1.8l-38,17l-0.8-1.8L42.6,19.1z"></path>
    <path style="fill:#3E2723;" d="M25,29.1L8.6,36.5c0.3,0.6,0.8,1.1,1.4,1.6l15-6.7V29.1z"></path>
</g>
</svg>