<svg xmlns="http://www.w3.org/2000/svg" version="1.1" id="Layer_1" x="0px" y="0px" viewBox="0 0 48 48"
     style="enable-background:new 0 0 48 48;" xml:space="preserve">
<g id="surface1">
	<path style="fill:#FFA000;" d="M31,14c-1-0.6-3.7-2-11-2v14h11v-8c1.1,0,2-0.6,2-1.7C33,15.2,32,14.6,31,14z"></path>
    <path style="fill:#546E7A;"
          d="M37,35H5c-0.5,0-1,0.5-1,1v6c0,0.5,0.5,1,1,1h2v1c0,0.5,0.5,1,1,1h2c0.5,0,1-0.5,1-1v-1h20v1   c0,0.5,0.5,1,1,1h2c0.5,0,1-0.5,1-1v-1h2c0.5,0,1-0.5,1-1v-6C38,35.5,37.5,35,37,35z"></path>
    <path style="fill:#FFC107;"
          d="M27,14c-1-0.6-4-2-8-2s-7,1.4-8,2c-1,0.6-2,1.2-2,2.3c0,1.1,0.9,1.7,2,1.7v8h16v-8   c1.1,0,2-0.6,2-1.7C29,15.2,28,14.6,27,14z"></path>
    <rect x="37" y="26" style="fill:#9FA8DA;" width="3" height="2"></rect>
    <path style="fill:#CFD8DC;" d="M4,39v-9c0-5,4.1-9,9-9h16c5,0,9,4,9,9v9H4z"></path>
    <path style="fill:#B0BEC5;" d="M44,29h-5v-4h3c1.1,0,2,0.9,2,2V29z"></path>
    <path style="fill:#FF1744;"
          d="M35,35.5c0,0.8-0.7,1.5-1.5,1.5S32,36.3,32,35.5s0.7-1.5,1.5-1.5S35,34.7,35,35.5z"></path>
    <path style="fill:#BCAAA4;"
          d="M16.7,11l-1.3-1.5c0.8-0.7,0.8-0.8,0.3-1.5s-1.5-2.2,0.7-4l1.3,1.5c-0.8,0.6-0.7,0.7-0.3,1.3   C17.8,7.6,18.8,9.1,16.7,11z M21.3,6.9c-0.5-0.7-0.5-0.7,0.3-1.3L20.3,4c-2.2,1.8-1.1,3.3-0.7,4c0.5,0.7,0.5,0.8-0.3,1.5l1.3,1.5   C22.8,9.1,21.8,7.6,21.3,6.9z M25.3,6.9c-0.5-0.7-0.5-0.7,0.3-1.3L24.3,4c-2.2,1.8-1.1,3.3-0.7,4c0.5,0.7,0.5,0.8-0.3,1.5l1.3,1.5   C26.8,9.1,25.8,7.6,25.3,6.9z"></path>
</g>
</svg>