<svg xmlns="http://www.w3.org/2000/svg" version="1.1" id="Layer_1" x="0px" y="0px" viewBox="0 0 48 48"
     style="enable-background:new 0 0 48 48;" xml:space="preserve">
<path style="fill:#78909C;"
      d="M35.355,10l7.256-6.45c0.823-0.822,0.206-1.72-0.617-2.542c-0.823-0.823-1.719-1.44-2.542-0.617  l-8.424,9.477C30.982,9.915,30.948,9.956,30.907,10H35.355z"></path>
    <path style="fill:#90CAF9;"
          d="M39,12l-2.31,26l-0.19,2.14c-0.26,2.2-2.15,3.86-4.4,3.86H15.9c-2.25,0-4.14-1.66-4.4-3.86L11.31,38  L9,12H39z"></path>
    <path style="fill:#64B5F6;"
          d="M8,12c-0.552,0-1-0.448-1-1V9c0-0.552,0.448-1,1-1h32c0.552,0,1,0.448,1,1v2c0,0.552-0.448,1-1,1H8z"></path>
    <polygon style="fill:#2196F3;" points="38.61,16 36.69,38 11.31,38 9.39,16 "></polygon>
    <circle style="fill:#FFFFFF;" cx="24" cy="27" r="8"></circle>
    <path style="fill:#388E3C;"
          d="M27.129,26.128c-1.121,1.121-3.082,0.841-3.082,0.841s-0.279-1.962,0.841-3.082  c1.121-1.12,3.082-0.84,3.082-0.84S28.249,25.007,27.129,26.128z"></path>
    <path style="fill:#388E3C;"
          d="M26.687,28c-1.322,0-2.313-1.322-2.313-1.322s0.992-1.322,2.313-1.322  c1.322,0,2.313,1.322,2.313,1.322S28.009,28,26.687,28z"></path>
    <path style="fill:#388E3C;"
          d="M25.659,24.328c0,1.322-1.322,2.313-1.322,2.313s-1.322-0.992-1.322-2.313  c0-1.322,1.322-2.313,1.322-2.313S25.659,23.006,25.659,24.328z"></path>
    <path style="fill:#FF1744;"
          d="M26.301,30.1c-0.938,0.939-3.091,1.9-4.812,1.9c-0.877,0-1.503-0.501-1.753-0.751  C19.485,30.998,19,30.497,19,29.495c0-1.718,0.964-3.861,1.9-4.796c1.342-1.343,3.01-0.591,4.501,0.901  C26.892,27.091,27.643,28.758,26.301,30.1z"></path>
</svg>